<?xml version="1.0" encoding="utf-8"?>
<!-- Generator: Adobe Illustrator 16.0.0, SVG Export Plug-In . SVG Version: 6.00 Build 0)  -->
<!DOCTYPE svg PUBLIC "-//W3C//DTD SVG 1.1//EN" "http://www.w3.org/Graphics/SVG/1.1/DTD/svg11.dtd">
<svg version="1.1" id="Layer_1" xmlns="http://www.w3.org/2000/svg" xmlns:xlink="http://www.w3.org/1999/xlink" x="0px" y="0px"
	 width="100px" height="100px" viewBox="0 0 100 100" enable-background="new 0 0 100 100" xml:space="preserve">
<path fill="#A8C329" d="M90.171,49.248c0,22.458-18.205,40.602-40.659,40.602c-22.455,0-40.659-18.145-40.659-40.602
	c0-22.454,18.204-40.657,40.659-40.657C71.966,8.59,90.171,26.793,90.171,49.248z"/>
<g>
	<g>
		<polygon fill="#576877" points="39.699,41.695 34.072,47.55 34.072,65.57 36.885,65.568 41.987,51.62 		"/>
		<polygon fill="#576877" points="59.369,41.695 64.996,47.55 64.996,65.57 62.182,65.568 57.083,51.62 		"/>
		<path opacity="0.2" fill="#58595B" enable-background="new    " d="M40.692,55.152l1.295-3.533l-2.288-9.924l-0.994,1.031
			C39.119,47.062,39.825,51.534,40.692,55.152z"/>
		<path opacity="0.2" fill="#414042" enable-background="new    " d="M60.402,42.77l-1.033-1.075l-2.286,9.924l1.319,3.609
			C59.277,51.605,59.984,47.123,60.402,42.77z"/>
		<path fill="#F1F2F2" d="M59.947,34.968c0-14.59-4.287-27.101-10.393-32.417c-6.101,5.316-10.388,17.827-10.388,32.417
			c0,7.507,1.777,19.615,3.71,25.323h13.356C58.169,54.583,59.947,42.475,59.947,34.968z"/>
		<path fill="#576877" d="M56.582,13.986c-1.798-5-4.214-8.986-7.027-11.435C46.744,5,44.33,8.986,42.529,13.986H56.582z"/>
		<g>
			<circle fill="#576877" cx="49.449" cy="27.517" r="3.704"/>
			<circle fill="#99E5FF" cx="49.448" cy="27.517" r="2.967"/>
			<path fill="#CCF2FF" d="M49.447,24.549c-0.82,0-1.562,0.333-2.1,0.872l4.195,4.196c0.539-0.537,0.872-1.281,0.872-2.101
				c0-0.102-0.02-0.2-0.027-0.299l-2.642-2.639C49.647,24.569,49.549,24.549,49.447,24.549z"/>
			<path fill="#CCF2FF" d="M46.816,26.171l3.976,3.977c0.155-0.08,0.304-0.17,0.438-0.273l-4.142-4.142
				C46.987,25.871,46.896,26.019,46.816,26.171z"/>
		</g>
		<g>
			<circle fill="#576877" cx="49.447" cy="35.477" r="2.825"/>
			<circle fill="#99E5FF" cx="49.448" cy="35.477" r="2.263"/>
			<path fill="#CCF2FF" d="M49.447,33.215c-0.624,0-1.191,0.253-1.601,0.665l3.196,3.198c0.413-0.409,0.668-0.976,0.668-1.601
				c0-0.079-0.019-0.151-0.024-0.229l-2.009-2.011C49.601,33.229,49.524,33.215,49.447,33.215z"/>
			<path fill="#CCF2FF" d="M47.441,34.452l3.032,3.03c0.116-0.06,0.228-0.128,0.333-0.208l-3.157-3.157
				C47.571,34.223,47.503,34.333,47.441,34.452z"/>
		</g>
		<path fill="#798692" d="M41.522,55.152c0.428,1.981,0.887,3.752,1.354,5.139h13.356c0.472-1.387,0.934-3.156,1.36-5.139H41.522z"
			/>
		<path fill="#576877" d="M50.523,65.035c0,0.296-0.24,0.535-0.536,0.535h-0.662c-0.298,0-0.54-0.239-0.54-0.535V41.812
			c0-0.294,0.242-0.535,0.54-0.535h0.662c0.295,0,0.536,0.241,0.536,0.535V65.035z"/>
	</g>
	<g>
		<path fill="#F1F2F2" d="M34.782,78.218c0,4.539-3.699,8.218-8.261,8.218c-4.56,0-8.258-3.679-8.258-8.218
			c0-4.561,3.698-8.258,8.258-8.258C31.083,69.96,34.782,73.657,34.782,78.218z"/>
		<ellipse fill="#F1F2F2" cx="33.356" cy="84.451" rx="5.498" ry="5.471"/>
		<path fill="#F1F2F2" d="M46.003,83.499c0,3.108-2.533,5.627-5.659,5.627c-3.121,0-5.654-2.519-5.654-5.627
			s2.534-5.633,5.654-5.633C43.47,77.866,46.003,80.391,46.003,83.499z"/>
		<ellipse fill="#F1F2F2" cx="58.743" cy="83.499" rx="4.375" ry="4.354"/>
		<ellipse fill="#F1F2F2" cx="61.975" cy="82.326" rx="4.416" ry="4.391"/>
		<path fill="#F1F2F2" d="M74.562,75.939c0,3.562-2.895,6.444-6.467,6.444c-3.568,0-6.465-2.882-6.465-6.444
			c0-3.571,2.896-6.465,6.465-6.465C71.669,69.475,74.562,72.368,74.562,75.939z"/>
		<path fill="#F1F2F2" d="M80.629,83.499c0,4.047-3.302,7.329-7.367,7.329c-4.068,0-7.367-3.282-7.367-7.329
			c0-4.049,3.299-7.34,7.367-7.34C77.327,76.159,80.629,79.45,80.629,83.499z"/>
		<path fill="#F1F2F2" d="M59.322,82.385c2.818,3.993-22.579,2.578-19.602-0.767c4.019-4.521,6.276-22.054,6.276-22.054h6.529
			C52.527,59.564,55.369,76.781,59.322,82.385z"/>
		<circle fill="#E6E7E8" cx="19.246" cy="67.578" r="8.104"/>
		<circle fill="#F1F2F2" cx="19.403" cy="68.677" r="8.103"/>
		<ellipse fill="#F1F2F2" cx="37.413" cy="90.208" rx="5.749" ry="5.722"/>
		<path fill="#F1F2F2" d="M57.424,84.451c0,4.619-3.761,8.361-8.399,8.361c-4.641,0-8.403-3.742-8.403-8.361
			c0-4.617,3.762-8.37,8.403-8.37C53.663,76.081,57.424,79.834,57.424,84.451z"/>
		<ellipse fill="#F1F2F2" cx="42.53" cy="90.828" rx="3.215" ry="3.197"/>
		<path fill="#F1F2F2" d="M83.619,74.374c0,3.615-2.936,6.535-6.553,6.535c-3.615,0-6.549-2.92-6.549-6.535
			c0-3.617,2.934-6.551,6.549-6.551C80.686,67.823,83.619,70.757,83.619,74.374z"/>
		<circle fill="#F1F2F2" cx="15.131" cy="58.979" r="6.033"/>
		<circle fill="#F1F2F2" cx="21.163" cy="60.771" r="2.354"/>
		<path fill="#F1F2F2" d="M33.699,69.475c0,2.392-1.939,4.33-4.331,4.33c-2.391,0-4.328-1.938-4.328-4.33
			c0-2.389,1.937-4.328,4.328-4.328C31.76,65.146,33.699,67.086,33.699,69.475z"/>
		<circle fill="#F1F2F2" cx="20.684" cy="55.154" r="8.682"/>
		<g>
			<path fill="#E6E7E8" d="M9.568,59.292c0-2.229,1.223-4.153,3.022-5.198c0.66-4.14,4.237-7.308,8.563-7.308
				c1.69,0,3.261,0.49,4.595,1.326c-1.426-1.028-3.171-1.64-5.064-1.64c-4.326,0-7.903,3.167-8.561,7.307
				c-1.801,1.046-3.024,2.969-3.024,5.199c0,2.192,1.185,4.086,2.935,5.14C10.544,63.021,9.568,61.282,9.568,59.292z"/>
			<path fill="#E6E7E8" d="M11.769,68.99c0-1.57,0.466-3.027,1.24-4.271c-0.169-0.08-0.327-0.18-0.488-0.273
				c-0.761,1.234-1.222,2.676-1.222,4.231c0,2.903,1.537,5.429,3.831,6.859C13.101,74.064,11.769,71.689,11.769,68.99z"/>
		</g>
		<circle fill="#F1F2F2" cx="83.62" cy="53.636" r="9.49"/>
		<path fill="#F1F2F2" d="M60.16,79.282c0,1.366-1.118,2.479-2.49,2.479c-1.376,0-2.49-1.11-2.49-2.479
			c0-1.369,1.114-2.485,2.49-2.485C59.042,76.797,60.16,77.913,60.16,79.282z"/>
		<g>
			<path fill="#E6E7E8" d="M57.716,83.109c0-0.196,0.036-0.383,0.06-0.571c-0.066-0.003-0.129-0.019-0.194-0.024
				c0.019,0.37,0.082,0.725,0.185,1.064C57.749,83.422,57.716,83.27,57.716,83.109z"/>
			<path fill="#E6E7E8" d="M61.789,76.725c0-3.57,2.895-6.465,6.465-6.465c2.986,0,5.48,2.039,6.223,4.795
				c-0.437-3.146-3.111-5.58-6.379-5.58c-3.57,0-6.466,2.895-6.466,6.467c0,0.529,0.097,1.033,0.226,1.524
				C61.826,77.223,61.789,76.979,61.789,76.725z"/>
			<path fill="#E6E7E8" d="M55.336,80.062c0-1.367,1.113-2.48,2.489-2.48c1.067,0,1.975,0.679,2.325,1.62
				c0.599-0.304,1.265-0.485,1.979-0.485c0.002,0,0.002,0,0.003,0c-0.082-0.254-0.143-0.516-0.201-0.779
				c-0.699,0.008-1.351,0.188-1.937,0.482c-0.353-0.943-1.259-1.623-2.326-1.623c-1.376,0-2.491,1.116-2.491,2.485
				c0,0.307,0.065,0.597,0.166,0.868C55.344,80.12,55.336,80.093,55.336,80.062z"/>
		</g>
		<path fill="#F1F2F2" d="M44.577,77.866c0,1.683-1.367,3.043-3.055,3.043c-1.689,0-3.056-1.36-3.056-3.043
			c0-1.687,1.367-3.056,3.056-3.056C43.21,74.812,44.577,76.18,44.577,77.866z"/>
		<path fill="#F1F2F2" d="M37.081,79.38c0,1.313-1.069,2.381-2.391,2.381c-1.321,0-2.393-1.067-2.393-2.381
			c0-1.315,1.071-2.387,2.393-2.387C36.011,76.993,37.081,78.064,37.081,79.38z"/>
		<g>
			<path fill="#E6E7E8" d="M41.208,75.283c1.688,0,3.057,1.367,3.057,3.055c0,0.549-0.159,1.057-0.415,1.501
				c1.125,1.027,1.84,2.49,1.84,4.129c0,1.058-0.311,2.034-0.82,2.88c0.703-0.939,1.134-2.091,1.134-3.349
				c0-1.64-0.716-3.103-1.84-4.13c0.256-0.444,0.414-0.952,0.414-1.503c0-1.687-1.367-3.056-3.055-3.056
				c-1.167,0-2.165,0.662-2.683,1.619C39.4,75.734,40.247,75.283,41.208,75.283z"/>
			<path fill="#E6E7E8" d="M34.375,77.466c1.175,0,2.146,0.845,2.349,1.954c0.443-0.32,0.936-0.566,1.462-0.75
				c-0.012-0.105-0.033-0.211-0.033-0.32c-0.394,0.162-0.773,0.354-1.116,0.602c-0.204-1.111-1.176-1.957-2.349-1.957
				c-0.936,0-1.738,0.542-2.13,1.322C32.998,77.802,33.644,77.466,34.375,77.466z"/>
		</g>
		<path fill="#E6E7E8" d="M55.941,76.797c0.014,0.035-0.146,0-0.146,0l-6.138-17.232h2.245
			C51.902,59.564,54.201,71.279,55.941,76.797z"/>
		<path fill="#E6E7E8" d="M42.858,76.797c-0.01,0.035,0.148,0,0.148,0l6.138-17.232h-2.245
			C46.899,59.564,44.601,71.279,42.858,76.797z"/>
		<ellipse fill="#E6E7E8" cx="32.447" cy="86.717" rx="7.274" ry="7.24"/>
		<ellipse fill="#F1F2F2" cx="31.665" cy="86.717" rx="7.274" ry="7.24"/>
		<path fill="#E6E7E8" d="M29.734,78.91c0,4.539-3.699,8.22-8.258,8.22c-4.561,0-8.26-3.681-8.26-8.22
			c0-4.559,3.699-8.258,8.26-8.258C26.035,70.652,29.734,74.354,29.734,78.91z"/>
		<path fill="#F1F2F2" d="M29.422,79.379c0,4.54-3.699,8.219-8.258,8.219c-4.561,0-8.26-3.679-8.26-8.219
			c0-4.557,3.699-8.252,8.26-8.252C25.723,71.127,29.422,74.822,29.422,79.379z"/>
		<path fill="#F1F2F2" d="M88.887,78.218c0,4.539-3.699,8.22-8.258,8.22c-4.562,0-8.262-3.681-8.262-8.22
			c0-4.561,3.699-8.261,8.262-8.261C85.188,69.957,88.887,73.657,88.887,78.218z"/>
		<path fill="#F1F2F2" d="M63.118,83.035c-1.119,0-2.156,0.318-3.062,0.845c-0.904-0.524-1.94-0.845-3.062-0.845
			c-3.07,0-5.594,2.258-6.032,5.195c-0.173-0.021-0.344-0.055-0.521-0.055c-2.571,0-4.658,2.075-4.658,4.637
			c0,2.56,2.087,4.637,4.658,4.637c1.872,0,3.476-1.11,4.213-2.693c0.724,0.299,1.512,0.465,2.341,0.465
			c1.121,0,2.157-0.322,3.062-0.847c0.905,0.524,1.942,0.847,3.062,0.847c3.381,0,6.123-2.729,6.123-6.095
			C69.241,85.764,66.499,83.035,63.118,83.035z"/>
		<path fill="#E6E7E8" d="M63.118,94.596c-1.119,0-2.156-0.32-3.062-0.845c-0.904,0.522-1.94,0.845-3.062,0.845
			c-0.829,0-1.617-0.17-2.34-0.466c-0.738,1.585-2.344,2.69-4.214,2.69c-2.465,0-4.463-1.909-4.626-4.322
			c-0.008,0.105-0.032,0.206-0.032,0.314c0,2.56,2.087,4.637,4.658,4.637c1.871,0,3.476-1.11,4.214-2.693
			c0.723,0.299,1.511,0.465,2.34,0.465c1.121,0,2.158-0.322,3.062-0.847c0.904,0.524,1.941,0.847,3.062,0.847
			c3.381,0,6.123-2.729,6.123-6.095c0-0.104-0.026-0.204-0.03-0.312C69.042,92.032,66.395,94.596,63.118,94.596z"/>
		<path fill="#E6E7E8" d="M74.559,82.014c0,3.778-3.078,6.838-6.873,6.838s-6.873-3.06-6.873-6.838c0-3.775,3.078-6.854,6.873-6.854
			S74.559,78.236,74.559,82.014z"/>
		<path fill="#F1F2F2" d="M74.089,82.326c0,3.777-3.079,6.84-6.872,6.84c-3.794,0-6.871-3.062-6.871-6.84s3.077-6.854,6.871-6.854
			C71.01,75.475,74.089,78.549,74.089,82.326z"/>
		<path fill="#E6E7E8" d="M92.721,63.368c0,4.7-3.808,8.509-8.507,8.509c-4.696,0-8.507-3.809-8.507-8.509
			c0-4.696,3.811-8.505,8.507-8.505C88.913,54.863,92.721,58.672,92.721,63.368z"/>
		<circle fill="#F1F2F2" cx="84.758" cy="65.011" r="9.363"/>
		<circle fill="#F1F2F2" cx="83.618" cy="69.96" r="7.034"/>
		<path fill="#E6E7E8" d="M91.646,58.682c0.92-1.463,1.463-3.188,1.463-5.045c0-5.243-4.25-9.492-9.489-9.492
			c-1.668,0-3.233,0.434-4.599,1.189c1-0.355,2.069-0.561,3.189-0.561c5.242,0,9.49,4.249,9.49,9.491
			c0,1.857-0.542,3.584-1.465,5.049c1.531,1.666,2.477,3.885,2.477,6.324c0,3.186-1.591,5.99-4.018,7.684
			c-0.603,1.427-1.674,2.599-3.008,3.359c1.994-0.611,3.609-2.087,4.414-3.988c2.428-1.69,4.02-4.5,4.02-7.682
			C94.121,62.566,93.175,60.35,91.646,58.682z"/>
	</g>
</g>
</svg>
