<?xml version="1.0" encoding="utf-8"?>
<!-- Generator: Adobe Illustrator 16.0.0, SVG Export Plug-In . SVG Version: 6.00 Build 0)  -->
<!DOCTYPE svg PUBLIC "-//W3C//DTD SVG 1.1//EN" "http://www.w3.org/Graphics/SVG/1.1/DTD/svg11.dtd">
<svg version="1.1" id="Layer_1" xmlns="http://www.w3.org/2000/svg" xmlns:xlink="http://www.w3.org/1999/xlink" x="0px" y="0px"
	 width="45px" height="40px" viewBox="0 0 45 40" enable-background="new 0 0 45 40" xml:space="preserve">
<g>
	<path fill="#6D90C9" d="M3.805,17.891c0.046,0.673,0.186,1.296,0.463,1.921c1.528,3.405,4.539,7.674,4.539,7.674l0.185,0.239
		c0.139,0.191,0.371,0.24,0.556,0.143c0.231-0.143,0.278-0.431,0.186-0.623l-4.03-6.761c-0.417-0.768-0.186-1.822,0.602-2.303
		c0.787-0.479,1.805-0.239,2.269,0.528l4.169,5.562c0.277,0.384,0.787,0.912,1.157,1.151c3.751,2.782,4.262,5.658,4.587,7.098
		c0,0,0.044,0.337,0.044,0.815l0,0l0,0c0,0.383,0,0.863-0.092,1.344l-0.231,4.651c0,0.336-0.277,0.624-0.603,0.624l-7.039-0.048
		c-0.324,0-0.603-0.288-0.603-0.625l-0.139-3.838l-6.716-8.391c-0.972-1.104-1.667-2.3-1.853-3.788l-0.045-0.431L0.007,11.132
		c-0.046-0.576,0.14-1.152,0.556-1.535c0.508-0.433,1.342-0.575,1.99,0.145c0.418,0.526,0.65,2.108,0.742,2.539
		c0.231,1.535,0.51,3.743,0.556,5.277C3.805,17.653,3.805,17.798,3.805,17.891z M5.055,16.743c0,0.144,0,0.237,0,0.383
		c0.139-0.146,0.277-0.239,0.463-0.337c0.186-0.143,0.416-0.236,0.648-0.286c0,0,0-0.048,0.047-0.048
		c-0.14-1.2-0.556-3.503-0.881-4.699c-0.139-0.576-0.509-1.008-1.064-1.248c0.139,0.431,0.186,0.815,0.279,1.248
		C4.729,13.098,5.055,15.495,5.055,16.743z M7.324,16.31c0.324,0,0.694,0.097,1.02,0.193c-0.094-0.768-0.603-2.35-0.788-3.07
		c-0.139-0.573-0.463-1.007-1.066-1.198c0.185,0.863,0.65,2.492,0.789,3.354l0.093,0.579C7.324,16.167,7.324,16.263,7.324,16.31z
		 M44.468,9.597c-0.51-0.433-1.344-0.575-1.992,0.145c-0.418,0.526-0.648,2.108-0.742,2.539c-0.23,1.535-0.508,3.743-0.555,5.277
		c0,0.096,0,0.24,0,0.333c-0.047,0.673-0.186,1.296-0.463,1.921c-1.529,3.405-4.539,7.674-4.539,7.674l-0.139,0.286
		c-0.139,0.193-0.371,0.24-0.557,0.145c-0.23-0.145-0.277-0.431-0.184-0.624l4.027-6.761c0.418-0.766,0.188-1.822-0.602-2.303
		c-0.787-0.479-1.805-0.241-2.27,0.529l-4.168,5.561c-0.277,0.385-0.787,0.912-1.156,1.151c-3.752,2.781-4.262,5.659-4.586,7.098
		c0,0-0.045,0.338-0.045,0.814l0,0c0,0.387,0,0.866,0.092,1.345l0.23,4.652c0,0.335,0.277,0.621,0.602,0.621l7.041-0.046
		c0.324,0,0.602-0.288,0.602-0.624l0.139-3.837l6.715-8.346c0.973-1.104,1.668-2.3,1.854-3.788l0.047-0.432l1.156-11.748
		C45.069,10.556,44.882,9.934,44.468,9.597z M39.974,17.126c0-0.146,0-0.239,0-0.383c0.049-1.296,0.324-3.646,0.557-4.987
		c0.047-0.386,0.141-0.817,0.279-1.248c-0.604,0.191-0.928,0.624-1.066,1.248c-0.324,1.196-0.693,3.499-0.881,4.699
		c0,0,0,0.048,0.047,0.048c0.23,0.095,0.416,0.19,0.648,0.286C39.651,16.887,39.835,17.031,39.974,17.126z M37.753,15.543
		c0.092-0.863,0.602-2.445,0.785-3.357c-0.557,0.191-0.879,0.625-1.064,1.199c-0.186,0.72-0.693,2.304-0.787,3.07
		c0.324-0.146,0.646-0.192,1.02-0.192c0-0.05,0-0.096,0-0.146L37.753,15.543z M24.563,2.075l-0.002,0.146l0.033-0.109l0.059,0.215
		l-0.256-0.083l0.031,0.038l-0.117-0.068l0.086,0.03l-0.092-0.115l-0.061,0.083l-0.107-0.14l0.059,0.172l-0.143,0.116L23.989,2.3
		l-0.018,0.009l0.02,0.081l-0.064,0.015l0.232,0.097L23.95,2.533l-0.004,0.031l0.219,0.078l-0.164,0.101l0.068,0.012l0.006,0.086
		l0.057-0.085l0.193,0.282l0.062-0.06l0.008,0.039h0.055l-0.062,0.07l0.082,0.043l-0.057,0.373l-0.078-0.188l-0.104,0.151
		l-0.25-0.312l-0.309,0.275l0.195,0.048l-0.166,0.05l0.607,0.118l-0.586,0.338l-0.381,0.083L23.341,4.12l-0.025-0.025L23.29,4.12
		l-0.205-0.186l-0.568,0.752l0.01-0.025l-0.078,0.081l0.046-0.149l-0.92,1.35l0.036,0.169l0.041-0.005l-0.01,0.042l0.04-0.002
		l-0.073,0.117l0.117-0.012L21.657,6.37l0.118,0.053l-0.077,0.08l0.107,0.087l-0.123,0.034l0.319,0.408l-0.053,0.062l0.104-0.05
		l0.062,0.075l0.059-0.034l0.012,0.086l-0.18,0.068l0.096,0.008l-0.166,0.041l0.01,0.007l-0.132,0.112l0.362-0.16l-0.002-0.021
		l0.012,0.017l-0.01,0.004l0.029,0.158l0.107-0.056L22.369,7.6l-0.73,0.379l0.01-0.021l-1.151,0.469l0.809-0.254l-0.267,0.132
		l0.576,0.534l-0.616,0.164l0.045-0.109l-0.02-0.004l0.309-0.091l-0.145-0.015l0.063-0.067l-0.854,0.467l0.044,0.042l-0.009,0.008
		l0.081,0.077l-0.136,0.006l0.001-0.036l-0.465,0.373l-0.06-0.085L19.79,9.841l0.019-0.294L19.7,9.721l-0.068-0.019l0.102,0.087
		l-0.06-0.027l0.034,0.102l-0.027-0.029l0.036,0.062l-0.063-0.032l0.094,0.157l-0.094,0.036l0.098,0.047l-0.17,0.09l0.097,0.039
		l-0.56,0.838l-0.041-0.025l-0.06,0.38l0.017,0.041l-0.026,0.023l0.01-0.064l-0.146-0.321l-0.012,0.019l-0.77-0.392l0.034,0.029
		l-0.021,0.035l0.045,0.06l-0.02,0.013l-0.065-0.069l-0.009,0.049l-0.529-0.15l-0.362,0.608l0.042-0.117L17.1,11.441l0.026-0.015
		l0.676,0.691l0.132-0.192L17.91,11.91l0.007-0.023l0.328,0.029l-0.007-0.023l0.057,0.005l-0.139,0.371l-0.015-0.06l-0.058,0.064
		l0.026,0.004l-0.182,0.354l0.072-0.049l-0.005,0.049l0.521,0.079l-0.001-0.007l0.024,0.012l-0.023-0.005l0.043,0.371l-0.03-0.003
		l0.117,0.419l0.926-0.128l-0.003,0.043l0.396-0.132l-0.071,0.369l0.155-0.323l0.87,0.274l-0.052,0.01l1.157,0.876l0.012-0.021
		l-0.169,0.688l0.031,0.005l-0.024,0.04l0.46-0.108l-0.238,0.144l0.599,0.014l-0.01,0.034l0.078-0.016l0.007,0.161l0.051-0.033
		v0.021l0.052-0.05l0.912,0.608l-2.158,2.833l0.019,0.007l-0.186,0.214l0.167-0.221l-0.061-0.024l-0.492,0.618l-0.353-0.271
		l0.043,0.659l-0.591,0.106l-0.032,0.276l0.019,0.001l-0.316-0.021l-0.236,0.687c0.846,0.259,1.738,0.405,2.664,0.405
		c2.643,0,5.031-1.141,6.742-2.967l-0.127-2.023l0.033,0.024l-0.143-0.276l0.043,0.011l-0.102-0.096l0.043,0.033l0.074-0.166
		l-0.027-0.025l0.076-0.045l-0.611-0.734l-1.629-0.248l0.01-0.014l-0.42-0.541l-0.012,0.008l-0.018-0.016l0.072-0.062l-0.061-0.037
		l0.037-0.017l-0.18-0.078l0.021-0.017l-0.035-0.008l0.01-0.111l0.148,0.006l-0.098-0.02l0.049-0.943l-0.023,0.021l0.193-0.356
		l-0.031-0.014l3.252-1.376l-0.074,0.478l2.17,0.181c0.006-0.101,0.018-0.204,0.018-0.308c0-0.014-0.004-0.027-0.004-0.04
		l-0.285-0.031l0.086-0.025l-0.123-0.018l0.043-0.022l-0.098-0.234l0.012-0.004l0.01,0.024l0.062-0.061l-0.023-0.009l0.016-0.102
		l-0.07-0.041l0.342-0.077c0-0.002,0-0.007,0-0.012l-0.012-0.009l0.01-0.007c-0.01-0.17-0.02-0.337-0.041-0.502l-0.25,0.459h0.01
		l-0.053,0.085l0.043-0.085l-0.242-0.047l0.016,0.025l-0.084-0.003l0.049,0.088l-0.053-0.032v0.045l-0.061-0.033l0.006,0.026
		l-0.068-0.094l0.023,0.225h-0.018l-0.002-0.026L30.89,11.01l0.113,0.189l-0.143-0.15l0.029-0.039l-0.324-0.543l-0.008,0.007
		l-0.48-0.608l-0.057,0.069L29.989,9.8L29.849,9.82l0.543,1.008l-0.059-0.093l-0.215,0.346l-0.699-1.119l-2.098,0.894l0.025-0.154
		l0.025,0.006l0.002-0.025l-0.066-0.026l0.051-0.046l-0.008-0.011l-0.055,0.019l0.094-0.746l0.119-0.008l-0.006-0.022l0.752,0.135
		l0.092-0.296l0.055,0.045l-0.098-0.363L28.36,9.35l-0.139-0.068l0.029-0.006l-0.248-0.116l0.061-0.044l-0.061-0.033l0.379-0.008
		l-0.025-0.186l0.232,0.061l0.518-0.385l-0.029-0.039l0.141-0.184l0.012,0.119l0.082-0.022l-0.023-0.104l0.191,0.002L29.46,8.28
		l0.254-0.002l-0.049-0.614l0.031,0.024l0.072-0.069v0.032l0.076-0.09l0.041,0.181L29.86,7.736l-0.131,0.29l0.039,0.031
		l-0.021,0.016l0.109,0.122L29.819,8.25l0.938-0.062L30.726,8.19l-0.008,0.028l0.129,0.016L30.8,8.273l0.115-0.048L30.88,8.209
		L31.007,8.1L30.97,8.198l0.074-0.164c-0.1-0.269-0.213-0.53-0.33-0.786L30.64,7.326l0.023,0.024l-0.004,0.013l-0.027-0.018
		l0.002,0.129L30.61,7.458l-0.002,0.034l-0.02-0.012l-0.475,0.488l-0.043-0.201l0.037,0.006l-0.014-0.037l0.039-0.009l-0.068-0.221
		l-0.027,0.011l0.053-0.23l-0.021-0.004l0.012-0.018l-0.033-0.018l-0.021,0.035l-0.004-0.024l-0.018,0.01l-0.066-0.346l-0.043,0.163
		l-0.023-0.025l-0.287,0.262l0.01-0.035l-0.033,0.01l-0.043-0.162l-0.062,0.061l-0.02-0.174l0.057,0.061l0.023-0.159l-0.043,0.05
		L29.46,6.949l-0.021,0.036l-0.029-0.029l0.146-0.173l-0.002,0.051l0.094-0.094l-0.031-0.032l-0.152,0.15l-0.033-0.025l0.039-0.005
		l0.008-0.058l-0.02,0.024l-0.027-0.044l0.082-0.068l-0.086-0.065l0.248,0.024l0.027-0.149l-0.084,0.061l0.02-0.035l-0.18,0.018
		l0.053-0.021l-0.062-0.019l0.102-0.008l-0.061-0.04l0.129-0.077l-0.156-0.071l0.137,0.022l-0.018-0.038l0.047,0.016l0.006-0.032
		l0.02,0.003l0.002,0.026l0.053-0.035L29.64,6.176h0.18l-0.123-0.032l0.014-0.022l0.125,0.04l0.014-0.018l0.027,0.015l0.029-0.053
		l-0.041-0.012l0.074-0.072l0.006,0.033l0.076-0.049C28.739,4.08,26.81,2.662,24.563,2.075z M28.38,14.993l-0.076-0.011L28.376,15
		L28.38,14.993z M14.265,6.426c-0.002,0.004-0.004,0.007-0.006,0.012l0.015,0.007L14.265,6.426z M18.97,20.305l-0.025-0.096
		l0.04-0.025l-0.009-0.039l-0.099,0.035l-0.065-5.293l-0.085-0.002l0.413-1.295l-0.305,0.06l0.049,0.066l-0.362-0.201l0.008,0.054
		l-0.02,0.009l-0.157-0.241l-0.018,0.021l0.027,0.021l-0.024,0.022l-0.053-0.193l0.021-0.01l-0.2-0.215l0.009-0.01l-0.014-0.004
		l0.035-0.062l-0.051-0.01l-0.023,0.047l-2.363-2.231l-0.019,0.011l-0.383-0.536l0.25,0.688l0.023-0.021l0.225,0.45l-0.077,0.058
		l-0.151-0.189l-0.016,0.016l-0.054-0.126l0.002,0.087l-0.074-0.379l-0.006,0.034l-0.205-0.136l0.141,0.018l-0.786-2.883
		l0.095,0.024l-0.143-0.419l0.162,0.053l-0.023-0.346l-0.032,0.034L14.55,7.082l0.121-0.065l-0.117-0.014l0.016-0.09l-0.054,0.09
		l-0.085-0.03l0.052-0.099L14.37,6.881l0.017-0.04l-0.099-0.005l-0.047-0.169l0.115-0.058l-0.01-0.072l-0.139,0.042L14.203,6.53
		c-0.842,1.456-1.337,3.156-1.337,4.977c0,4.139,2.512,7.673,6.033,9.078l0.039-0.297L18.97,20.305z M18.007,3.111L18.14,3.28
		l0.062-0.023l-0.153-0.163l0.094-0.086l0.082,0.182l0.105-0.06l-0.061,0.424l0.315-0.604l-0.099-0.001l0.07-0.151l0.012,0.063
		l0.07-0.105l-0.246-0.107c-0.271,0.128-0.536,0.268-0.793,0.42l0.427,0.102L18.007,3.111z M18.638,2.676l0.15-0.073l-0.066,0.084
		l0.094,0.095l0.062-0.072l0.056,0.124l-0.051-0.008l0.084,0.382l0.156-0.39l0.102,0.716l0.295-0.43l0.038,0.021l0.016-0.318
		l0.327,0.096l-0.058,0.026l0.176,0.128l-0.085,0.1l0.068,0.021l-0.065,0.088l-0.059-0.041l0.029-0.051L19.88,3.15l-0.239,0.78
		l-0.017-0.138l-0.047-0.011l-0.008-0.069l-0.085,0.061l0.048-0.012l0.056,0.205L19.29,3.857l0.064,0.111L18.81,3.945l0.384,0.265
		L18.97,4.542l-0.064-0.068v0.05L18.833,4.46l-0.077,0.134l-0.606-0.223l1.229,2.722l-0.102,0.008l0.242,0.431l0.186-0.096
		l0.061,0.121l0.367-1.873L20.067,5.68L20.062,5.5l-0.033,0.001l0.085-0.462l0.837,0.76l-0.138-0.006l0.168,0.229l-0.038-0.01
		l-0.018,0.035l-0.017-0.026l-0.021,0.073l0.184-0.005L21.013,6.25l0.1-0.089l0.052,0.067l0.153-0.123l0.078,0.063l0.026-0.065
		l-0.568-0.853l0.052-0.04l-0.043-0.034l0.033-0.03l-0.048-0.099l0.106-0.045L20.897,4.98l0.092-0.096l-0.087-0.068l-0.101,0.142
		l0.002-0.482l-0.069-0.023l0.296-0.205l-0.352,0.179l0.28-0.368l-0.184-0.089l0.28,0.027l-0.007-0.062L20.75,3.878l0.31-0.004
		l-0.175-0.13l0.243-0.191l-0.394-0.563l0.321,0.09l-0.008-0.55l-0.359,0.059l0.08-0.237l-0.111,0.031L20.43,1.959
		c-0.556,0.114-1.089,0.288-1.605,0.496l0.032,0.099L18.638,2.676z M30.63,7.143L30.481,7.16l0.203,0.028
		c-0.014-0.026-0.025-0.054-0.037-0.073h-0.066L30.63,7.143z M31.649,10.867l-0.01-0.012c0,0.005,0,0.01,0,0.012H31.649z
		 M17.82,12.135l-0.019-0.017l-0.009,0.013L17.82,12.135z M14.738,7.522l-0.046,0.034l0.021-0.084l-0.031-0.012l0.013,0.184
		L14.738,7.522z M22.175,7.228l0.002,0.021l0.01-0.004L22.175,7.228z M19.034,11.466l-0.017-0.041l-0.01,0.064L19.034,11.466z
		 M18.516,12.703l0.001,0.007l0.023,0.005L18.516,12.703z M16.881,2.901l0.301,0.07l0.041-0.078L16.881,2.901z M14.192,6.398
		l0.011,0.132c0.019-0.032,0.036-0.062,0.056-0.093L14.192,6.398z M23.771,2.891l0.211,0.266l0.055-0.049L23.771,2.891z
		 M24.429,2.281l-0.031-0.038l-0.086-0.03L24.429,2.281z M21.422,6.104l0.021,0.029l0.132-0.19l-0.03-0.14L21.422,6.104z
		 M28.271,14.973l0.002,0.006l0.031,0.004L28.271,14.973z M31.64,10.855c0-0.004-0.002-0.009-0.002-0.016l-0.01,0.007L31.64,10.855z
		 M28.612,8.958l-0.023-0.009l0,0L28.612,8.958z M29.843,9.82h0.006l-0.008-0.013L29.843,9.82z M31.003,11.199L30.89,11.01
		l-0.029,0.039L31.003,11.199z M31.356,10.797h-0.01l-0.043,0.085L31.356,10.797z M31.046,4.468
		c-1.496-1.996-3.609-3.464-6.049-4.105C24.122,0.135,23.212,0,22.271,0c-0.963,0-1.893,0.141-2.783,0.381
		c-1.439,0.382-2.761,1.057-3.913,1.959c-0.474,0.369-0.92,0.777-1.328,1.221c-1.909,2.065-3.089,4.861-3.089,7.946
		c0,6.355,4.975,11.506,11.113,11.506c2.766,0,5.291-1.054,7.236-2.787c1.559-1.391,2.748-3.213,3.377-5.298
		c0.016-0.059,0.027-0.12,0.041-0.178c0.293-1.029,0.455-2.117,0.455-3.243C33.38,8.853,32.503,6.414,31.046,4.468z M30.581,7.115
		h0.066c0.012,0.02,0.023,0.047,0.037,0.073L30.481,7.16l0.148-0.018L30.581,7.115z M18.392,2.647l0.246,0.107l-0.07,0.105
		l-0.012-0.063l-0.07,0.151l0.099,0.001l-0.315,0.604l0.061-0.424l-0.105,0.06l-0.082-0.182l-0.094,0.086l0.153,0.163L18.14,3.28
		l-0.133-0.169l0.019,0.058l-0.427-0.102C17.855,2.915,18.12,2.775,18.392,2.647z M18.812,14.887l0.065,5.293l0.099-0.035
		l0.009,0.039l-0.04,0.025l0.025,0.096l-0.031-0.017l-0.039,0.297c-3.521-1.405-6.033-4.939-6.033-9.078
		c0-1.82,0.495-3.521,1.337-4.977l-0.011-0.132l0.066,0.039c0.002-0.005,0.004-0.008,0.006-0.012l0.009,0.019l-0.015-0.007
		c-0.02,0.03-0.037,0.061-0.056,0.093l0.005,0.049l0.139-0.042l0.01,0.072l-0.115,0.058l0.047,0.169l0.099,0.005l-0.017,0.04
		l0.112-0.007l-0.052,0.099l0.085,0.03l0.054-0.09l-0.016,0.09l0.117,0.014L14.55,7.082l0.077,0.067l0.032-0.034l0.023,0.346
		l0.031,0.012l-0.021,0.084l0.046-0.034l-0.043,0.122l-0.013-0.184l-0.162-0.053l0.143,0.419l-0.095-0.024l0.786,2.883l-0.141-0.018
		l0.205,0.136l0.006-0.034l0.074,0.379l-0.002-0.087l0.054,0.126l0.016-0.016l0.151,0.189l0.077-0.058l-0.225-0.45l-0.023,0.021
		l-0.25-0.688l0.383,0.536l0.019-0.011l2.363,2.231l0.023-0.047l0.051,0.01l-0.035,0.062l0.014,0.004l-0.009,0.01l0.2,0.215
		l-0.021,0.01l0.053,0.193l0.024-0.022l-0.027-0.021l0.018-0.021l0.157,0.241l0.02-0.009l-0.008-0.054l0.362,0.201l-0.049-0.066
		l0.305-0.06l-0.413,1.295L18.812,14.887z M31.655,11.814l-2.17-0.181l0.074-0.478l-3.252,1.376l0.031,0.014l-0.193,0.356
		l0.023-0.021l-0.049,0.943l0.098,0.02l-0.148-0.006l-0.01,0.111l0.035,0.008l-0.021,0.017l0.18,0.078l-0.037,0.017l0.061,0.037
		l-0.072,0.062l0.018,0.016l0.012-0.008l0.42,0.541l-0.01,0.014l1.629,0.248l-0.002-0.006l0.033,0.01l0.076,0.011L28.376,15
		l-0.072-0.018l-0.031-0.004l0.611,0.734l-0.076,0.045l0.027,0.025l-0.074,0.166l-0.043-0.033l0.102,0.096l-0.043-0.011l0.143,0.276
		l-0.033-0.024l0.127,2.023c-1.711,1.826-4.1,2.967-6.742,2.967c-0.926,0-1.818-0.146-2.664-0.405l0.236-0.687l0.316,0.021
		l-0.019-0.001l0.032-0.276l0.591-0.106l-0.043-0.659l0.353,0.271l0.492-0.618l0.061,0.024l2.158-2.833l-0.912-0.608l-0.052,0.05
		v-0.021l-0.051,0.033l-0.007-0.161l-0.078,0.016l0.01-0.034l-0.599-0.014l0.238-0.144l-0.46,0.108l0.024-0.04l-0.031-0.005
		l0.169-0.688l-0.012,0.021l-1.157-0.876l0.052-0.01l-0.87-0.274l-0.155,0.323l0.071-0.369l-0.396,0.132l0.003-0.043l-0.926,0.128
		l-0.117-0.419l0.03,0.003l-0.043-0.371l-0.521-0.079l0.005-0.049l-0.072,0.049l0.182-0.354l-0.026-0.004l0.058-0.064l0.015,0.06
		l0.139-0.371l-0.057-0.005l0.007,0.023l-0.328-0.029L17.91,11.91l0.023,0.016l-0.132,0.192l0.019,0.017l-0.027-0.004l0.009-0.013
		l-0.676-0.691L17.1,11.441l0.106-0.254l-0.042,0.117l0.362-0.608l0.529,0.15l0.009-0.049l0.065,0.069l0.02-0.013l-0.045-0.06
		l0.021-0.035l-0.034-0.029l0.77,0.392l0.012-0.019l0.146,0.321l0.06-0.38l0.041,0.025l0.56-0.838l-0.097-0.039l0.17-0.09
		l-0.098-0.047l0.094-0.036l-0.094-0.157l0.063,0.032l-0.036-0.062l0.027,0.029l-0.034-0.102l0.06,0.027l-0.102-0.087L19.7,9.721
		l0.108-0.174L19.79,9.841l0.064-0.272l0.06,0.085l0.465-0.373l-0.001,0.036l0.136-0.006l-0.081-0.077l0.009-0.008l-0.044-0.042
		l0.854-0.467l-0.063,0.067l0.145,0.015L21.024,8.89l0.02,0.004l-0.045,0.109l0.616-0.164l-0.576-0.534l0.267-0.132l-0.809,0.254
		l1.151-0.469l-0.01,0.021l0.73-0.379l-0.056-0.249l-0.107,0.056l-0.029-0.158l-0.362,0.16l0.132-0.112l-0.01-0.007l0.166-0.041
		L22.007,7.24l0.18-0.068l-0.012-0.086L22.116,7.12l-0.062-0.075l-0.104,0.05l0.053-0.062l-0.319-0.408l0.123-0.034l-0.107-0.087
		l0.077-0.08L21.657,6.37l0.068-0.118l-0.117,0.012l0.073-0.117l-0.04,0.002l0.01-0.042L21.61,6.111l-0.036-0.169l-0.132,0.19
		l-0.021-0.029l-0.026,0.065l-0.078-0.063l-0.153,0.123l-0.052-0.067l-0.1,0.089l0.058-0.161l-0.184,0.005l0.021-0.073l0.017,0.026
		l0.018-0.035l0.038,0.01l-0.168-0.229l0.138,0.006l-0.837-0.76l-0.085,0.462L20.062,5.5l0.006,0.18l0.064,0.004l-0.367,1.873
		l-0.061-0.121l-0.186,0.096l-0.242-0.431l0.102-0.008l-1.229-2.722l0.606,0.223l0.077-0.134l0.072,0.063v-0.05l0.064,0.068
		l0.224-0.332L18.81,3.945l0.545,0.023L19.29,3.857l0.298,0.109l-0.056-0.205l-0.048,0.012l0.085-0.061l0.008,0.069l0.047,0.011
		l0.017,0.138l0.239-0.78l0.026,0.023l-0.029,0.051l0.059,0.041l0.065-0.088l-0.068-0.021l0.085-0.1l-0.176-0.128l0.058-0.026
		l-0.327-0.096l-0.016,0.318l-0.038-0.021l-0.295,0.43l-0.102-0.716l-0.156,0.39l-0.084-0.382l0.051,0.008l-0.056-0.124
		l-0.062,0.072l-0.094-0.095l0.066-0.084l-0.15,0.073l0.219-0.122l-0.032-0.099c0.517-0.208,1.05-0.382,1.605-0.496l0.228,0.423
		l0.111-0.031l-0.08,0.237l0.359-0.059l0.008,0.55l-0.321-0.09l0.394,0.563l-0.243,0.191l0.175,0.13l-0.31,0.004l0.299,0.056
		l0.007,0.062l-0.28-0.027l0.184,0.089l-0.28,0.368l0.352-0.179l-0.296,0.205l0.069,0.023l-0.002,0.482l0.101-0.142l0.087,0.068
		L20.897,4.98l0.057,0.022l-0.106,0.045l0.048,0.099l-0.033,0.03l0.043,0.034l-0.052,0.04l0.568,0.853l0.122-0.301l0.03,0.14
		l0.92-1.35l-0.046,0.149l0.078-0.081l-0.01,0.025l0.568-0.752L23.29,4.12l0.025-0.025l0.025,0.025l0.002-0.052l0.381-0.083
		l0.586-0.338l-0.607-0.118l0.166-0.05l-0.195-0.048l0.309-0.275l-0.211-0.266l0.266,0.217l-0.055,0.049l0.25,0.312l0.104-0.151
		l0.078,0.188l0.057-0.373l-0.082-0.043l0.062-0.07h-0.055l-0.008-0.039l-0.062,0.06l-0.193-0.282l-0.057,0.085l-0.006-0.086
		l-0.068-0.012l0.164-0.101l-0.219-0.078l0.004-0.031l0.209-0.032l-0.232-0.097l0.064-0.015l-0.02-0.081L23.989,2.3l0.064,0.06
		l0.143-0.116l-0.059-0.172l0.107,0.14l0.061-0.083l0.092,0.115l0.256,0.083l-0.059-0.215l-0.033,0.109l0.002-0.146
		c2.246,0.587,4.176,2.005,5.457,3.931l-0.076,0.049l-0.006-0.033l-0.074,0.072l0.041,0.012l-0.029,0.053l-0.027-0.015l-0.014,0.018
		l-0.125-0.04l-0.014,0.022l0.123,0.032h-0.18l0.068,0.085l-0.053,0.035L29.653,6.27l-0.02-0.003l-0.006,0.032l-0.047-0.016
		l0.018,0.038l-0.137-0.022l0.156,0.071l-0.129,0.077l0.061,0.04l-0.102,0.008l0.062,0.019l-0.053,0.021l0.18-0.018l-0.02,0.035
		l0.084-0.061l-0.027,0.149l-0.248-0.024l0.086,0.065l-0.082,0.068l0.027,0.044l0.02-0.024L29.47,6.828l-0.039,0.005l0.033,0.025
		l0.152-0.15l0.031,0.032l-0.094,0.094l0.002-0.051l-0.146,0.173l0.029,0.029l0.021-0.036l0.014,0.023l0.043-0.05l-0.023,0.159
		l-0.057-0.061l0.02,0.174l0.062-0.061l0.043,0.162l0.033-0.01l-0.01,0.035l0.287-0.262l0.023,0.025l0.043-0.163l0.066,0.346
		l0.018-0.01l0.004,0.024l0.021-0.035l0.033,0.018l-0.012,0.018l0.021,0.004l-0.053,0.23l0.027-0.011l0.068,0.221l-0.039,0.009
		l0.014,0.037l-0.037-0.006l0.043,0.201l0.475-0.488l0.02,0.012l0.002-0.034l0.023,0.017l-0.002-0.129l0.027,0.018l0.004-0.013
		L30.64,7.326l0.074-0.078c0.117,0.256,0.23,0.518,0.33,0.786L30.97,8.198L31.007,8.1L30.88,8.209l0.035,0.017L30.8,8.273
		l0.047-0.039l-0.129-0.016l0.008-0.028l0.031-0.003L29.819,8.25l0.037-0.055l-0.109-0.122l0.021-0.016l-0.039-0.031l0.131-0.29
		l0.025,0.006l-0.041-0.181l-0.076,0.09V7.619l-0.072,0.069l-0.031-0.024l0.049,0.614L29.46,8.28l0.02,0.056l-0.191-0.002
		l0.023,0.104l-0.082,0.022l-0.012-0.119l-0.141,0.184l0.029,0.039l-0.518,0.385l-0.232-0.061l0.025,0.186l-0.379,0.008l0.061,0.033
		l-0.061,0.044l0.248,0.116l-0.029,0.006L28.36,9.35l-0.057,0.012l0.098,0.363L28.347,9.68l-0.092,0.296l-0.752-0.135l0.006,0.022
		L27.39,9.871l-0.094,0.746l0.055-0.019l0.008,0.011l-0.051,0.046l0.066,0.026l-0.002,0.025l-0.025-0.006l-0.025,0.154l2.098-0.894
		l0.699,1.119l0.215-0.346l0.059,0.093L29.849,9.82h-0.006l-0.002-0.013l0.008,0.013L29.989,9.8l0.031,0.135l0.057-0.069l0.48,0.608
		l0.008-0.007l0.324,0.543l0.023-0.039l0.002,0.026h0.018l-0.023-0.225l0.068,0.094l-0.006-0.026l0.061,0.033v-0.045l0.053,0.032
		l-0.049-0.088l0.084,0.003l-0.016-0.025l0.242,0.047l0.25-0.459c0.021,0.165,0.031,0.332,0.041,0.502
		c0,0.007,0.002,0.012,0.002,0.016l0.01,0.012h-0.01l-0.342,0.077l0.07,0.041l-0.016,0.102l0.023,0.009l-0.062,0.061l-0.01-0.024
		l-0.012,0.004l0.098,0.234l-0.043,0.022l0.123,0.018l-0.086,0.025l0.285,0.031c0,0.013,0.004,0.026,0.004,0.04
		C31.673,11.61,31.661,11.714,31.655,11.814z"/>
</g>
</svg>
