<?xml version="1.0" encoding="utf-8"?>
<!-- Generator: Adobe Illustrator 16.0.0, SVG Export Plug-In . SVG Version: 6.00 Build 0)  -->
<!DOCTYPE svg PUBLIC "-//W3C//DTD SVG 1.1//EN" "http://www.w3.org/Graphics/SVG/1.1/DTD/svg11.dtd">
<svg version="1.1" id="Layer_1" xmlns="http://www.w3.org/2000/svg" xmlns:xlink="http://www.w3.org/1999/xlink" x="0px" y="0px"
	 width="100px" height="100px" viewBox="0 0 100 100" enable-background="new 0 0 100 100" xml:space="preserve">
<path fill="#FACB6B" d="M90.171,49.248c0,22.458-18.205,40.602-40.659,40.602c-22.455,0-40.659-18.145-40.659-40.602
	c0-22.454,18.204-40.657,40.659-40.657C71.966,8.59,90.171,26.793,90.171,49.248z"/>
<g>
	<circle fill="#A8C329" cx="49.659" cy="48.865" r="40.564"/>
	<g>
		<g>
			<rect x="28.002" y="61.623" fill="#F1F2F2" width="12.151" height="11.658"/>
			<polygon fill="#E6E7E8" points="28.002,70.225 40.153,65.176 40.153,62.488 28.002,62.488 			"/>
			<path fill="#F1F2F2" d="M45.247,61.775l-8.753,4.266c-1.155,0.518-3.039,0.545-4.209,0.064l-9.799-4.392
				c-1.17-0.479-2.118-1.896-2.118-3.157V34.845H47.34v23.711C47.339,59.818,46.403,61.264,45.247,61.775z"/>
			<path fill="#F1F2F2" d="M21.369,47.082c0,1.906-0.578,3.454-1.296,3.454c-0.713,0,0-1.079-1.295-3.454
				c-0.912-1.673,0.582-3.452,1.295-3.452C20.791,43.629,21.369,45.176,21.369,47.082z"/>
			<path fill="#F1F2F2" d="M46.128,47.082c0,1.906,0.58,3.454,1.295,3.454c0.715,0,0-1.079,1.295-3.454
				c0.913-1.673-0.58-3.452-1.295-3.452C46.708,43.63,46.128,45.176,46.128,47.082z"/>
			<path fill="#4C5562" d="M20.384,48.427h0.951c0,0-1.082-9.287,2.238-10.988c3.317-1.706,7.274-1.472,10.036-1.009
				c0,0,9.42-1.062,11.171,0.826c2.688,2.89,1.883,11.171,1.883,11.171l0.805,0.002c0,0,0.531-2.098-0.128-12.346
				c0,0,0.33-4.895-2.687-6.431c-1.167-0.592-1.817-2.505-0.933-2.851c0,0-4.15-0.696-5.219,0.927c0,0-2.77-4.116-1.598-6.148
				c0,0-3.071,2.672-3.295,6.617c0,0-0.599-4.403-2.841-4.749c0,0-1.322,1.844-2.814,4.052c0,0-2.635-2.29-5.711,0.615
				c0,0,1.854,0.86,2.068,1.902c0,0-5.329,2.125-4.218,7.92L20.384,48.427z"/>
			<polygon fill="#F1F2F2" points="46.128,72.32 45.268,71.971 33.855,69.367 21.369,72.32 34.33,83.289 			"/>
			<g>
				<path fill="#414E59" d="M47.34,35.096c-4.893,4.898-22.792,4.898-27.686,0l0.028-10.781l27.658-0.122V35.096z"/>
				<path opacity="0.4" fill="#414042" enable-background="new    " d="M19.654,35.096c2.477,2.481,8.285,3.704,14.053,3.672
					l13.633-13.51l-27.686-1.556V35.096z"/>
				<polygon fill="#2C343C" points="57.943,26.474 33.75,17.311 9.56,26.474 9.141,26.316 9.141,26.633 33.75,36.007 58.357,26.633 
					58.357,26.316 				"/>
				<polygon fill="#576877" points="58.357,26.316 33.75,35.687 9.141,26.316 33.75,16.994 				"/>
				<g>
					<polygon fill="#F17046" points="43.767,41.8 43.747,32.042 33.581,26.633 33.918,26 44.465,31.611 44.484,41.8 					"/>
				</g>
				<ellipse fill="#FFFFFF" cx="33.459" cy="26.28" rx="1.219" ry="0.61"/>
				<g>
					<path fill="#F17046" d="M44.012,41.604c0,0-0.068,0.238-0.227,0.552c-0.155,0.307-0.413,0.68-0.712,1.014
						c-0.304,0.332-0.647,0.623-0.938,0.812c-0.297,0.182-0.529,0.272-0.529,0.272s0.069-0.242,0.222-0.552
						c0.16-0.307,0.417-0.682,0.714-1.015c0.307-0.33,0.648-0.619,0.941-0.807C43.778,41.696,44.012,41.604,44.012,41.604z"/>
					<path fill="#F17046" d="M44.012,41.604c0,0,0.238,0.092,0.547,0.273c0.305,0.187,0.667,0.474,0.992,0.806
						c0.314,0.33,0.593,0.703,0.767,1.016c0.17,0.314,0.249,0.556,0.249,0.556s-0.239-0.085-0.544-0.267
						c-0.307-0.189-0.67-0.476-0.992-0.809c-0.318-0.332-0.596-0.705-0.767-1.017C44.091,41.846,44.012,41.604,44.012,41.604z"/>
					<path fill="#F17046" d="M44.012,41.604c0,0,0.108,0.22,0.205,0.546c0.089,0.327,0.15,0.765,0.153,1.205
						c-0.003,0.432-0.062,0.872-0.153,1.198c-0.094,0.33-0.205,0.546-0.205,0.546s-0.114-0.216-0.208-0.546
						c-0.089-0.326-0.15-0.766-0.152-1.198c0.004-0.44,0.064-0.877,0.154-1.205C43.897,41.824,44.012,41.604,44.012,41.604z"/>
					<circle fill="#FFFFFF" cx="44.011" cy="41.604" r="1.219"/>
				</g>
			</g>
			<path fill="#414042" d="M9.323,83.264c-0.844-0.979,0.774-5.109,0.774-5.109c0.184-1.897,1.834-3.786,3.682-4.227l16.634-3.938
				l3.698,3.914l3.67-3.914l17.378,3.965c1.856,0.424,3.509,2.301,3.694,4.199c0,0,1.617,4.084,0.785,5.057
				C51.46,92.77,17.53,92.797,9.323,83.264z"/>
			<polygon fill="#FFFFFF" points="24.863,71.203 29.419,79.244 34.111,73.904 31.191,69.703 			"/>
			<polygon fill="#FFFFFF" points="43.362,71.203 38.803,79.244 34.111,73.904 37.03,69.703 			"/>
		</g>
		<g>
			<path fill="#576877" d="M93.984,89.191c0,0.666-0.541,1.205-1.207,1.205h-51.65c-0.667,0-1.207-0.539-1.207-1.205V57.859
				c0-0.67,0.541-1.211,1.207-1.211h51.65c0.666,0,1.207,0.541,1.207,1.211V89.191z"/>
			<rect x="42.843" y="58.896" fill="#FFFFFF" width="48.218" height="29.252"/>
			<g>
				<g>
					<polygon fill="#F17046" points="79.118,86.227 76.107,91.84 78.124,91.957 80.729,87.094 					"/>
					<polygon fill="#B55435" points="80.729,87.094 78.124,91.957 79.337,93.574 82.348,87.955 					"/>
				</g>
				<g>
					<polygon fill="#F17046" points="84.146,86.227 87.157,91.84 85.141,91.957 82.532,87.094 					"/>
					<polygon fill="#B55435" points="82.532,87.094 85.141,91.957 83.928,93.574 80.918,87.955 					"/>
				</g>
				<g>
					<path fill="#FACB6B" d="M87.191,84.426c0,0.309-0.604,0.561-0.653,0.855c-0.054,0.305,0.424,0.748,0.321,1.029
						c-0.104,0.282-0.758,0.317-0.906,0.58c-0.153,0.262,0.145,0.842-0.053,1.073c-0.193,0.236-0.816,0.043-1.049,0.236
						c-0.232,0.194-0.15,0.844-0.416,0.998c-0.261,0.146-0.777-0.246-1.068-0.142c-0.281,0.103-0.426,0.738-0.729,0.793
						c-0.297,0.051-0.646-0.496-0.957-0.496c-0.31,0-0.664,0.547-0.955,0.496c-0.304-0.055-0.449-0.69-0.731-0.793
						c-0.284-0.104-0.808,0.287-1.067,0.142c-0.264-0.154-0.182-0.804-0.414-0.998c-0.232-0.193-0.854,0-1.05-0.236
						c-0.194-0.233,0.103-0.812-0.052-1.075c-0.15-0.261-0.805-0.296-0.906-0.578c-0.104-0.281,0.373-0.726,0.322-1.029
						c-0.055-0.295-0.653-0.547-0.653-0.855c0-0.308,0.601-0.564,0.653-0.859c0.051-0.301-0.426-0.743-0.322-1.024
						c0.104-0.287,0.756-0.317,0.908-0.582c0.152-0.262-0.146-0.84,0.05-1.069c0.195-0.234,0.815-0.041,1.05-0.236
						c0.232-0.191,0.15-0.836,0.414-0.988c0.26-0.15,0.783,0.24,1.067,0.135c0.282-0.1,0.429-0.73,0.731-0.787
						c0.291-0.051,0.646,0.496,0.955,0.496c0.311,0,0.66-0.547,0.957-0.496c0.303,0.057,0.446,0.688,0.729,0.787
						c0.291,0.105,0.809-0.285,1.072-0.133c0.262,0.15,0.18,0.795,0.412,0.986c0.231,0.195,0.854,0.002,1.049,0.236
						c0.195,0.229-0.102,0.809,0.053,1.069c0.148,0.265,0.802,0.295,0.906,0.582c0.103,0.281-0.375,0.726-0.321,1.024
						C86.589,83.861,87.191,84.117,87.191,84.426z"/>
					<path fill="#BC9850" d="M81.684,88.207c-2.088,0-3.781-1.695-3.781-3.781c0-2.084,1.693-3.777,3.781-3.777
						c2.084,0,3.78,1.693,3.78,3.777C85.464,86.512,83.768,88.207,81.684,88.207z"/>
					<path fill="#FACB6B" d="M84.075,81.889l-4.784,5.074c0.625,0.59,1.465,0.957,2.393,0.957c1.932,0,3.491-1.562,3.491-3.494
						C85.175,83.426,84.749,82.523,84.075,81.889z"/>
					<path fill="#FBD589" d="M81.684,80.938c-1.929,0-3.492,1.56-3.492,3.488c0,1.002,0.422,1.902,1.101,2.537l4.784-5.074
						C83.45,81.297,82.607,80.938,81.684,80.938z"/>
				</g>
			</g>
			<g>
				<path fill="#58595B" d="M49.082,83.271c0.05-0.037,0.087-0.062,0.119-0.068c0.023-0.006,0.05-0.006,0.074-0.006
					c0.114,0,0.279,0.041,0.493,0.133c0.027,0.01,0.176,0.08,0.45,0.209c0.134-0.363,0.249-0.639,0.339-0.838
					c0.209-0.482,0.404-0.814,0.574-0.994c0.049-0.053,0.116-0.102,0.215-0.154c0.122-0.066,0.229-0.1,0.312-0.104
					c0.267-0.006,0.5,0.205,0.621,0.582c0.005,0.012,0.012,0.023,0.012,0.035c0,0.018-0.012,0.026-0.02,0.026
					c-0.013,0-0.024-0.01-0.035-0.034c-0.055-0.146-0.143-0.269-0.252-0.373c-0.108-0.107-0.221-0.168-0.332-0.179
					c-0.139-0.014-0.291,0.066-0.452,0.25c-0.175,0.197-0.372,0.533-0.589,1.009c-0.062,0.135-0.171,0.401-0.333,0.807
					c0.177,0.096,0.359,0.197,0.535,0.293c0.332,0.176,0.635,0.32,0.903,0.422c0.375,0.148,0.695,0.227,0.959,0.23
					c0.202,0.004,0.376-0.047,0.517-0.156c0.121-0.09,0.23-0.312,0.246-0.525c0.008-0.039,0.015-0.059,0.023-0.059
					c0.012,0,0.021,0.02,0.021,0.061c0,0.104-0.028,0.217-0.074,0.336c-0.051,0.117-0.104,0.197-0.174,0.248
					c-0.039,0.023-0.105,0.055-0.207,0.082c-0.12,0.035-0.235,0.047-0.346,0.051c-0.517,0.014-1.336-0.274-2.454-0.861
					c-0.034,0.104-0.09,0.188-0.175,0.261c-0.08,0.071-0.161,0.11-0.247,0.114c-0.167,0.002-0.343-0.079-0.527-0.254
					c-0.168-0.162-0.267-0.301-0.274-0.426C49.002,83.355,49.029,83.314,49.082,83.271z M50.168,83.668
					c-0.413-0.201-0.724-0.316-0.929-0.346c-0.085-0.012-0.131,0.008-0.131,0.072c0,0.024,0.008,0.049,0.018,0.076
					c0.065,0.147,0.167,0.274,0.312,0.391c0.135,0.104,0.259,0.16,0.377,0.164C49.979,84.027,50.096,83.91,50.168,83.668z"/>
				<path fill="#58595B" d="M51.25,83.92c-0.027,0-0.039-0.004-0.055-0.109c-0.008-0.053-0.012-0.086,0-0.102
					c0.014-0.021,0.107-0.064,0.15-0.064c0.008,0,0.014,0,0.021,0.002c0.016,0.021,0.026,0.09,0.026,0.209
					C51.395,83.883,51.309,83.92,51.25,83.92z"/>
				<path fill="#58595B" d="M52.6,83.797c-0.246,0.16-0.551,0.191-0.701,0.068c-0.051-0.041-0.082-0.141-0.1-0.221
					c-0.013-0.039,0.034-0.054,0.045-0.015c0.02,0.074,0.074,0.146,0.129,0.19c0.114,0.095,0.371,0.08,0.588-0.063
					c0.563-0.389,1.149-1.522,1.447-2.239c-0.545,0.1-1.094,0.348-1.427,0.602c-0.108,0.092-0.241,0.205-0.272,0.383
					c-0.02,0.088,0.012,0.174,0.035,0.227c0.01,0.021-0.009,0.039-0.023,0.021c-0.041-0.049-0.071-0.158-0.074-0.242
					c-0.008-0.153,0.1-0.299,0.277-0.45c0.312-0.265,0.918-0.521,1.528-0.654c0.034-0.008,0.062-0.023,0.075-0.043
					c0.041-0.037,0.109,0.022,0.096,0.062C53.816,82.299,53.236,83.389,52.6,83.797z"/>
				<path fill="#58595B" d="M53.223,84.217c-0.035,0.086-0.07,0.176-0.107,0.268c-0.545,1.354-1.118,2.189-1.699,2.507
					c-0.156,0.082-0.311,0.125-0.464,0.125c-0.243,0-0.449-0.097-0.61-0.293c-0.169-0.201-0.25-0.435-0.25-0.712
					c0-0.399,0.177-0.756,0.536-1.067c0.364-0.313,0.825-0.558,1.375-0.705c0.392-0.104,0.771-0.166,1.151-0.172
					c0.084-0.16,0.117-0.25,0.225-0.435c0.098-0.168,0.188-0.35,0.288-0.522c-0.046-0.041-0.065-0.074-0.06-0.104
					c0.014-0.035,0.072-0.076,0.178-0.121c0.113-0.174,0.061-0.096,0.291-0.444c0.014-0.021,0.055-0.041,0.124-0.067
					c0.03-0.011,0.042-0.009,0.042,0.01c0,0.018-0.012,0.01-0.041,0.053c-0.135,0.195-0.062,0.096-0.236,0.391
					c0.184-0.07,0.327-0.102,0.443-0.102c0.162,0,0.242,0.074,0.242,0.223c0,0.115-0.051,0.244-0.152,0.391
					c0.271-0.067,0.427-0.104,0.473-0.108c0.008-0.004,0.018-0.004,0.022,0c0.004,0.004,0.004,0.004,0,0.01
					c-0.007,0.009-0.015,0.011-0.022,0.013c-0.162,0.045-0.357,0.104-0.585,0.184c-0.185,0.174-0.423,0.283-0.718,0.314
					c-0.047,0.008-0.072-0.017-0.072-0.066c0-0.01,0.006-0.021,0.016-0.033c0.058-0.037,0.306-0.127,0.734-0.266
					c0.112-0.133,0.172-0.271,0.172-0.41c0-0.119-0.067-0.182-0.203-0.182c-0.104,0-0.237,0.049-0.404,0.137
					c-0.172,0.289-0.369,0.506-0.672,1.141c0.072,0,0.142,0,0.201,0.008c0.136,0.025,0.222,0.137,0.222,0.252
					c0,0.027-0.007,0.057-0.021,0.074c-0.029,0.059-0.104,0.133-0.219,0.225c-0.023,0.021-0.035,0.027-0.05,0.027
					c-0.003,0-0.009,0-0.009-0.004c0-0.016,0.013-0.027,0.033-0.045c0.137-0.125,0.199-0.236,0.199-0.334
					c0-0.082-0.039-0.129-0.152-0.143C53.346,84.213,53.303,84.217,53.223,84.217z M53.139,84.217
					c-0.343,0.006-0.685,0.062-1.052,0.168c-0.526,0.158-0.974,0.396-1.341,0.709c-0.405,0.354-0.616,0.709-0.616,1.094
					c0,0.242,0.089,0.439,0.262,0.609c0.165,0.166,0.361,0.246,0.584,0.246c0.141,0,0.279-0.035,0.407-0.107
					c0.25-0.135,0.511-0.395,0.774-0.778c0.191-0.279,0.391-0.615,0.572-1.025c0.101-0.211,0.199-0.438,0.299-0.659
					C53.061,84.404,53.092,84.318,53.139,84.217z"/>
				<path fill="#58595B" d="M56.273,83.197l0.006,0.006c-0.315,0.061-0.645,0.197-1.004,0.402c0.06,0.078,0.08,0.127,0.08,0.158
					c0,0.063-0.074,0.125-0.222,0.188c-0.129,0.059-0.235,0.086-0.308,0.086c-0.032,0-0.053-0.004-0.071-0.013
					c-0.062,0.013-0.103,0.021-0.122,0.015c-0.035-0.002-0.037-0.017-0.021-0.045c0.043-0.05,0.195-0.166,0.459-0.351l-0.109-0.143
					c-0.048-0.064-0.074-0.121-0.081-0.182c-0.021-0.15,0.138-0.316,0.462-0.512c0.317-0.188,0.609-0.283,0.858-0.277
					c0.014,0,0.026,0.006,0.036,0.018c0.011,0.021,0.011,0.035,0,0.043c-0.026,0.047-0.121,0.107-0.151,0.098
					c-0.101-0.035-0.175-0.051-0.222-0.051c-0.025,0-0.053,0.004-0.074,0.008c-0.123,0.031-0.273,0.105-0.443,0.228
					c-0.217,0.146-0.316,0.272-0.299,0.387c0.008,0.05,0.034,0.107,0.073,0.173c0.044,0.065,0.081,0.104,0.114,0.125
					C55.598,83.355,55.939,83.258,56.273,83.197z M54.802,84.002c0.039,0.01,0.108-0.006,0.204-0.039
					c0.09-0.031,0.151-0.061,0.178-0.094c0.008-0.014,0.012-0.025,0.012-0.039c0-0.033-0.027-0.076-0.076-0.125
					c-0.037,0.021-0.09,0.059-0.167,0.117c-0.087,0.062-0.144,0.109-0.164,0.141C54.77,83.984,54.773,83.996,54.802,84.002z"/>
				<path fill="#58595B" d="M56.925,83.67c-0.026,0.16,0.052,0.135,0.113,0.117c0.032-0.01,0.313-0.205,0.342-0.221
					c0.071-0.049,0.078,0,0.022,0.053C57.355,83.67,57.057,83.881,57,83.9c-0.061,0.016-0.171-0.084-0.171-0.17
					c0-0.176,0.096-0.379,0.159-0.533c0.029-0.062,0-0.131-0.082-0.051c-0.219,0.215-0.744,0.723-0.885,0.77
					c-0.121,0.041-0.205-0.061-0.197-0.172c0.023-0.318,0.447-0.918,0.615-1.117c0.052-0.055,0.177-0.043,0.092,0.061
					c-0.201,0.252-0.485,0.695-0.555,0.933c-0.054,0.187,0.019,0.235,0.131,0.172c0.354-0.211,0.804-0.767,1.076-1.008
					c0.086-0.078,0.129,0.086,0.099,0.129C57.158,83.102,56.953,83.488,56.925,83.67z"/>
				<path fill="#58595B" d="M58.495,84.078c-0.022,0-0.04-0.01-0.04-0.037c0-0.01,0.002-0.016,0.01-0.023
					c0.156-0.291,0.402-0.557,0.479-0.813c0.017-0.031,0.023-0.063,0.023-0.093c0-0.041-0.016-0.055-0.047-0.055
					c-0.02,0-0.039,0.01-0.064,0.027c-0.34,0.271-0.556,0.475-0.65,0.609c-0.007,0.012-0.032,0.031-0.083,0.049
					c-0.054,0.027-0.093,0.037-0.112,0.055c-0.025,0.01-0.068-0.037-0.052-0.055c0.136-0.197,0.233-0.381,0.288-0.553
					c0.01-0.021,0.012-0.045,0.012-0.066c0-0.039-0.016-0.057-0.048-0.057c-0.012,0-0.024,0.004-0.044,0.008
					c-0.044,0.021-0.125,0.076-0.245,0.178c-0.134,0.115-0.246,0.221-0.337,0.328c-0.051,0.051-0.109,0.139-0.189,0.248
					c-0.006,0.01-0.031,0.025-0.078,0.045c-0.049,0.016-0.075,0.033-0.088,0.039c-0.006,0.004-0.011,0-0.012-0.012
					c-0.004-0.021-0.004-0.031,0-0.045c0.001-0.019,0.02-0.045,0.035-0.078c0.066-0.121,0.163-0.273,0.296-0.461
					c0.132-0.188,0.236-0.318,0.31-0.39c0.024-0.024,0.088-0.053,0.108-0.038c0.011,0.008,0.002,0.018-0.015,0.03
					c-0.021,0.015-0.064,0.063-0.139,0.149c-0.086,0.103-0.166,0.216-0.231,0.339c-0.031,0.053-0.031,0.075-0.007,0.075
					c0.013,0,0.021-0.008,0.035-0.021c0.137-0.137,0.3-0.267,0.496-0.389c0.141-0.089,0.246-0.121,0.308-0.101
					c0.024,0.006,0.032,0.023,0.032,0.051c0,0.045-0.055,0.16-0.152,0.355c-0.014,0.02-0.02,0.039-0.02,0.055
					c0,0.027,0.01,0.037,0.031,0.037c0.01,0,0.022-0.002,0.033-0.012c0.312-0.285,0.592-0.48,0.814-0.588
					c0.015-0.008,0.029-0.01,0.037-0.01c0.041,0,0.056,0.02,0.045,0.07c-0.018,0.018-0.035,0.043-0.063,0.073
					c-0.127,0.31-0.399,0.75-0.646,1.062C58.516,84.074,58.509,84.078,58.495,84.078z"/>
			</g>
			<rect x="54.223" y="61.623" fill="#F17046" width="26.012" height="2.48"/>
			<rect x="47.834" y="67.77" fill="#E6E7E8" width="38.184" height="1.613"/>
			<rect x="47.836" y="70.961" fill="#E6E7E8" width="38.184" height="1.615"/>
			<rect x="47.838" y="74.156" fill="#E6E7E8" width="35.319" height="1.613"/>
			<rect x="47.839" y="77.35" fill="#E6E7E8" width="17.331" height="1.611"/>
		</g>
	</g>
</g>
</svg>
