<?xml version="1.0" encoding="utf-8"?>
<!-- Generator: Adobe Illustrator 16.0.0, SVG Export Plug-In . SVG Version: 6.00 Build 0)  -->
<!DOCTYPE svg PUBLIC "-//W3C//DTD SVG 1.1//EN" "http://www.w3.org/Graphics/SVG/1.1/DTD/svg11.dtd">
<svg version="1.1" id="Layer_1" xmlns="http://www.w3.org/2000/svg" xmlns:xlink="http://www.w3.org/1999/xlink" x="0px" y="0px"
	 width="100px" height="100px" viewBox="0 0 100 100" enable-background="new 0 0 100 100" xml:space="preserve">
<g>
	<circle fill="#A8C329" cx="50.426" cy="51.538" r="43.062"/>
	<g>
		<path fill="#F17046" d="M61.88,21.178c0,0,7.443,1.462,7.708,7.449l0.008,0.009c0,0,6.754,1.221,4.74,9.388
			c0.025,0.02,5.113,3.891,3.473,12.664l0.012-0.033c0,0,7.014,4.754-0.775,11.813l-0.02,0.823c0,0,0.974,5.805-5.646,10.657
			c0,0-2.749,2.317-7.303,7.812c-2.191,2.645-9.328,5.729-12.868-4.806V23.013C51.207,23.013,55.797,14.401,61.88,21.178z"/>
		<g>
			<path fill="#F1F2F2" d="M59.186,65.291c-0.943,0-1.893-0.18-2.774-0.535c-1.817-0.738-3.289-2.199-4.039-4.012
				c-0.183-0.436,0.024-0.936,0.461-1.118c0.438-0.181,0.938,0.024,1.119,0.462c0.577,1.391,1.709,2.514,3.103,3.078
				c1.395,0.566,2.99,0.553,4.371-0.044c1.381-0.595,2.487-1.739,3.037-3.142c0.549-1.402,0.512-3.002-0.104-4.377
				c-0.19-0.436,0.002-0.939,0.436-1.131c0.432-0.193,0.938,0,1.131,0.434c0.799,1.789,0.848,3.871,0.131,5.699
				c-0.711,1.824-2.154,3.314-3.953,4.09C61.176,65.094,60.182,65.291,59.186,65.291z"/>
		</g>
		<g>
			<path fill="#F1F2F2" d="M65.902,55.863c-0.197,0-0.394-0.014-0.59-0.032c-0.473-0.048-0.813-0.47-0.765-0.94
				c0.05-0.47,0.47-0.812,0.941-0.764c1.811,0.188,3.489-0.889,4.077-2.62c0.584-1.73-0.092-3.604-1.652-4.559
				c-0.402-0.248-0.529-0.773-0.283-1.178c0.251-0.401,0.775-0.529,1.18-0.283c2.242,1.374,3.222,4.075,2.379,6.568
				C70.412,54.361,68.284,55.863,65.902,55.863z"/>
		</g>
		<g>
			<path fill="#F1F2F2" d="M59.348,41.491c-0.461,0-0.932-0.043-1.396-0.138c-3.007-0.603-5.274-3.05-5.644-6.097
				c-0.055-0.468,0.278-0.895,0.75-0.951c0.471-0.055,0.896,0.277,0.951,0.748c0.279,2.307,1.996,4.165,4.276,4.62
				s4.579-0.599,5.723-2.62c0.232-0.412,0.755-0.557,1.168-0.325c0.412,0.232,0.558,0.755,0.324,1.167
				C64.227,40.149,61.863,41.491,59.348,41.491z"/>
		</g>
		<g>
			<path fill="#F1F2F2" d="M56.762,52.396c-0.058,0-0.113-0.002-0.174-0.004c-1.873-0.068-3.529-1.238-4.222-2.982
				c-0.175-0.438,0.038-0.937,0.479-1.113c0.438-0.174,0.938,0.044,1.109,0.482c0.441,1.112,1.499,1.86,2.693,1.903
				c1.191,0.043,2.305-0.625,2.826-1.703c0.207-0.425,0.717-0.602,1.143-0.396c0.428,0.208,0.607,0.719,0.398,1.144
				C60.227,51.361,58.568,52.396,56.762,52.396z"/>
		</g>
		<g>
			<path fill="#F1F2F2" d="M66.723,75.297c-0.15,0-0.301-0.038-0.438-0.12c-0.406-0.243-0.54-0.77-0.298-1.175
				c0.519-0.868,0.625-1.915,0.291-2.872c-0.334-0.954-1.07-1.707-2.016-2.063c-0.949-0.358-1.998-0.277-2.88,0.219
				c-0.88,0.497-1.491,1.354-1.677,2.351c-0.087,0.462-0.532,0.771-0.999,0.683c-0.464-0.084-0.771-0.529-0.685-0.995
				c0.278-1.495,1.195-2.781,2.521-3.528c1.323-0.748,2.901-0.868,4.323-0.329c1.424,0.533,2.527,1.667,3.029,3.103
				c0.5,1.435,0.342,3.01-0.438,4.313C67.296,75.148,67.014,75.297,66.723,75.297z"/>
		</g>
		<g>
			<path fill="#F1F2F2" d="M63.07,31.759c-0.03,0-0.062-0.002-0.092-0.005c-0.469-0.047-0.812-0.468-0.764-0.941
				c0.27-2.562-2.218-5.533-4.926-5.889c-0.471-0.061-0.799-0.49-0.74-0.96c0.061-0.468,0.493-0.799,0.96-0.739
				c3.662,0.481,6.777,4.255,6.411,7.769C63.874,31.432,63.503,31.759,63.07,31.759z"/>
		</g>
		<g>
			<path fill="#F1F2F2" d="M70.811,60.631c-0.449,0-0.828-0.354-0.854-0.808c-0.024-0.472,0.332-0.88,0.808-0.903
				c1.231-0.074,2.344-0.807,2.896-1.919c0.552-1.108,0.473-2.435-0.212-3.465c-0.264-0.396-0.153-0.925,0.242-1.187
				c0.394-0.263,0.924-0.154,1.187,0.239c1.019,1.541,1.144,3.524,0.313,5.179c-0.826,1.657-2.481,2.752-4.33,2.86
				C70.846,60.631,70.826,60.631,70.811,60.631z"/>
		</g>
		<path fill="#F17046" d="M39.156,21.178c0,0-7.446,1.462-7.708,7.449l-0.012,0.009c0,0-6.751,1.221-4.736,9.388
			c-0.029,0.02-5.113,3.891-3.477,12.664l-0.009-0.033c0,0-7.013,4.754,0.777,11.813l0.019,0.823c0,0-0.977,5.805,5.645,10.657
			c0,0,2.75,2.317,7.305,7.812c2.191,2.645,9.327,5.729,12.867-4.806V23.013C49.827,23.013,45.24,14.401,39.156,21.178z"/>
		<g>
			<path fill="#F1F2F2" d="M41.851,65.291c0.946,0,1.89-0.18,2.775-0.535c1.816-0.738,3.288-2.199,4.038-4.012
				c0.181-0.436-0.023-0.936-0.462-1.118c-0.438-0.181-0.938,0.024-1.12,0.462c-0.577,1.391-1.707,2.514-3.103,3.078
				c-1.394,0.566-2.988,0.553-4.369-0.044c-1.381-0.595-2.488-1.739-3.037-3.142c-0.549-1.403-0.514-3.002,0.102-4.377
				c0.191-0.436-0.002-0.939-0.436-1.131c-0.432-0.193-0.938,0-1.129,0.434c-0.798,1.789-0.847,3.871-0.131,5.699
				c0.711,1.824,2.154,3.314,3.955,4.09C39.858,65.094,40.855,65.291,41.851,65.291z"/>
		</g>
		<g>
			<path fill="#F1F2F2" d="M35.133,55.863c0.196,0,0.391-0.014,0.589-0.032c0.47-0.048,0.812-0.47,0.764-0.94
				c-0.049-0.47-0.47-0.812-0.939-0.764c-1.814,0.188-3.492-0.889-4.078-2.62c-0.585-1.73,0.095-3.604,1.65-4.559
				c0.405-0.248,0.53-0.773,0.283-1.178c-0.247-0.401-0.775-0.529-1.178-0.283c-2.242,1.374-3.223,4.075-2.381,6.568
				C30.624,54.361,32.749,55.863,35.133,55.863z"/>
		</g>
		<g>
			<path fill="#F1F2F2" d="M41.687,41.491c0.462,0,0.93-0.043,1.396-0.138c3.008-0.603,5.276-3.05,5.643-6.097
				c0.055-0.468-0.279-0.895-0.75-0.951c-0.47-0.055-0.896,0.277-0.951,0.748c-0.277,2.307-2,4.165-4.277,4.62
				c-2.28,0.455-4.58-0.599-5.723-2.62c-0.233-0.412-0.754-0.557-1.166-0.325s-0.559,0.755-0.324,1.167
				C36.808,40.149,39.171,41.491,41.687,41.491z"/>
		</g>
		<g>
			<path fill="#F1F2F2" d="M44.274,52.396c0.056,0,0.113-0.002,0.173-0.004c1.871-0.068,3.529-1.238,4.221-2.982
				c0.175-0.438-0.039-0.937-0.479-1.113c-0.438-0.174-0.937,0.044-1.108,0.482c-0.444,1.112-1.502,1.86-2.695,1.903
				c-1.19,0.043-2.305-0.625-2.826-1.703c-0.206-0.425-0.718-0.602-1.146-0.396c-0.426,0.208-0.604,0.719-0.396,1.144
				C40.81,51.361,42.467,52.396,44.274,52.396z"/>
		</g>
		<g>
			<path fill="#F1F2F2" d="M34.312,75.297c0.151,0,0.302-0.038,0.438-0.12c0.406-0.243,0.54-0.77,0.297-1.175
				c-0.518-0.868-0.625-1.915-0.291-2.872c0.335-0.954,1.07-1.707,2.016-2.063c0.949-0.358,1.997-0.277,2.879,0.219
				c0.881,0.497,1.491,1.354,1.678,2.351c0.087,0.462,0.531,0.771,0.999,0.683c0.464-0.084,0.771-0.529,0.687-0.995
				c-0.279-1.495-1.197-2.781-2.522-3.528c-1.325-0.748-2.901-0.868-4.322-0.329c-1.423,0.533-2.529,1.667-3.03,3.103
				c-0.5,1.435-0.341,3.01,0.436,4.313C33.737,75.148,34.021,75.297,34.312,75.297z"/>
		</g>
		<g>
			<path fill="#F1F2F2" d="M37.964,31.759c0.03,0,0.06-0.002,0.09-0.005c0.471-0.047,0.814-0.468,0.764-0.941
				c-0.27-2.562,2.22-5.533,4.929-5.889c0.468-0.061,0.798-0.49,0.737-0.96c-0.061-0.468-0.49-0.799-0.962-0.739
				c-3.66,0.481-6.774,4.255-6.407,7.769C37.161,31.432,37.533,31.759,37.964,31.759z"/>
		</g>
		<g>
			<path fill="#F1F2F2" d="M30.225,60.631c0.45,0,0.827-0.354,0.853-0.808c0.027-0.472-0.332-0.88-0.803-0.903
				c-1.234-0.074-2.345-0.807-2.896-1.919c-0.552-1.108-0.475-2.435,0.211-3.465c0.262-0.396,0.151-0.925-0.242-1.187
				c-0.395-0.263-0.928-0.154-1.188,0.239c-1.02,1.541-1.14,3.524-0.312,5.179c0.824,1.657,2.482,2.752,4.327,2.86
				C30.19,60.631,30.208,60.631,30.225,60.631z"/>
		</g>
	</g>
</g>
</svg>
