<?xml version="1.0" encoding="utf-8"?>
<!-- Generator: Adobe Illustrator 16.0.0, SVG Export Plug-In . SVG Version: 6.00 Build 0)  -->
<!DOCTYPE svg PUBLIC "-//W3C//DTD SVG 1.1//EN" "http://www.w3.org/Graphics/SVG/1.1/DTD/svg11.dtd">
<svg version="1.1" id="Layer_1" xmlns="http://www.w3.org/2000/svg" xmlns:xlink="http://www.w3.org/1999/xlink" x="0px" y="0px"
	 width="25px" height="25px" viewBox="0 0 25 25" enable-background="new 0 0 25 25" xml:space="preserve">
<path fill="#565656" d="M24.209,2.98c-0.288-0.339-0.752-0.456-1.271-0.296l-2.805,0.868l0.021-0.234
	c0.021-0.169,0.042-0.637-0.295-1.036c-0.186-0.222-0.54-0.487-1.171-0.487c-0.141,0-0.292,0.013-0.451,0.041
	c-1.033,0.17-6.032,1.442-7.471,1.81L8.715,1.971c-0.171-0.14-0.393-0.2-0.61-0.165l-4.271,0.66
	C3.606,2.501,3.405,2.638,3.286,2.836L1.103,6.524c-0.092,0.154-0.127,0.337-0.1,0.516c0.008,0.04,0.617,3.876,1.339,7.699
	c1.356,7.186,1.898,8.172,2.396,8.421c0.033,0.024,0.068,0.048,0.108,0.069c0.163,0.095,0.354,0.146,0.555,0.146
	c0.309,0,0.639-0.114,1.008-0.348c0,0,0.002,0,0.004-0.004c0.06-0.036,0.119-0.072,0.167-0.106
	c1.652-1.021,12.803-7.845,12.917-7.912c0.135-0.083,0.241-0.204,0.305-0.35L24.41,4.176c0.028-0.062,0.048-0.128,0.058-0.194
	C24.489,3.842,24.531,3.36,24.209,2.98z M4.813,19.053c-0.67-2.919-1.528-7.579-2.233-11.979l1.854-3.132L8,3.391l2.09,1.705
	c0.19,0.153,0.444,0.211,0.683,0.151c2.279-0.585,6.824-1.73,7.716-1.879c0.037-0.006,0.073-0.011,0.103-0.014l-0.1,1.128
	c-1.884,0.583-3.639,1.127-3.639,1.127c-0.078,0.024-0.148,0.069-0.201,0.133c-0.08,0.095-1.922,2.236-2.259,2.64
	c-0.391,0.243-3.161,1.306-5.68,2.218c-0.219,0.049-1.112,0.288-1.188,1.008C5.157,15.052,4.938,17.416,4.813,19.053z"/>
</svg>
