<?xml version="1.0" encoding="utf-8"?>
<!-- Generator: Adobe Illustrator 16.0.0, SVG Export Plug-In . SVG Version: 6.00 Build 0)  -->
<!DOCTYPE svg PUBLIC "-//W3C//DTD SVG 1.1//EN" "http://www.w3.org/Graphics/SVG/1.1/DTD/svg11.dtd">
<svg version="1.1" id="Layer_1" xmlns="http://www.w3.org/2000/svg" xmlns:xlink="http://www.w3.org/1999/xlink" x="0px" y="0px"
	 width="100px" height="100px" viewBox="0 0 100 100" enable-background="new 0 0 100 100" xml:space="preserve">
<path fill="#FACB6B" d="M90.171,49.248c0,22.458-18.205,40.602-40.659,40.602c-22.455,0-40.659-18.145-40.659-40.602
	c0-22.454,18.204-40.657,40.659-40.657C71.966,8.59,90.171,26.793,90.171,49.248z"/>
<g>
	<path fill="#A8C329" d="M93.327,51.251c0,23.724-19.229,42.89-42.951,42.89c-23.721,0-42.952-19.166-42.952-42.89
		C7.424,27.529,26.655,8.3,50.376,8.3C74.098,8.3,93.327,27.529,93.327,51.251z"/>
	<g>
		<g>
			<polygon fill="#FACB6B" points="64.264,22.143 50.729,14.418 37.195,22.143 37.195,60.678 64.264,60.678 			"/>
			<polygon fill="#FACB6B" points="75.257,88.529 26.198,88.529 26.2,55.07 50.729,40.373 75.26,55.07 			"/>
			<g>
				<rect x="28.007" y="61.104" fill="#FFFFFF" width="9.108" height="9.107"/>
				<rect x="28.925" y="62.023" fill="#99E5FF" width="7.272" height="7.27"/>
				<polygon fill="#CCF2FF" points="36.197,68.355 36.197,65.068 33.148,62.023 29.863,62.023 				"/>
				<polygon fill="#CCF2FF" points="28.925,63.779 34.439,69.293 36.072,69.293 28.925,62.15 				"/>
			</g>
			<g>
				<rect x="39.919" y="61.166" fill="#FFFFFF" width="9.105" height="9.109"/>
				<rect x="40.832" y="62.086" fill="#99E5FF" width="7.271" height="7.271"/>
				<polygon fill="#CCF2FF" points="48.104,68.419 48.104,65.134 45.054,62.086 41.771,62.086 				"/>
				<polygon fill="#CCF2FF" points="40.832,63.848 46.346,69.357 47.977,69.357 40.832,62.215 				"/>
			</g>
			<g>
				<rect x="51.824" y="61.232" fill="#FFFFFF" width="9.107" height="9.104"/>
				<rect x="52.744" y="62.15" fill="#99E5FF" width="7.27" height="7.271"/>
				<polygon fill="#CCF2FF" points="60.014,68.484 60.014,65.199 56.967,62.15 53.682,62.15 				"/>
				<polygon fill="#CCF2FF" points="52.744,63.91 58.254,69.421 59.887,69.421 52.744,62.279 				"/>
			</g>
			<g>
				<rect x="63.734" y="61.295" fill="#FFFFFF" width="9.107" height="9.109"/>
				<rect x="64.652" y="62.215" fill="#99E5FF" width="7.271" height="7.271"/>
				<polygon fill="#CCF2FF" points="71.925,68.547 71.925,65.262 68.873,62.215 65.588,62.215 				"/>
				<polygon fill="#CCF2FF" points="64.652,63.977 70.162,69.486 71.797,69.486 64.652,62.342 				"/>
			</g>
			<g>
				<rect x="28.479" y="73.895" fill="#FFFFFF" width="9.106" height="9.105"/>
				<rect x="29.396" y="74.814" fill="#99E5FF" width="7.273" height="7.271"/>
				<polygon fill="#CCF2FF" points="36.669,81.148 36.669,77.864 33.621,74.814 30.334,74.814 				"/>
				<polygon fill="#CCF2FF" points="29.396,76.575 34.906,82.087 36.54,82.087 29.396,74.941 				"/>
			</g>
			<g>
				<rect x="64.204" y="74.09" fill="#FFFFFF" width="9.108" height="9.104"/>
				<rect x="65.121" y="75.01" fill="#99E5FF" width="7.271" height="7.268"/>
				<polygon fill="#CCF2FF" points="72.395,81.343 72.395,78.055 69.343,75.01 66.059,75.01 				"/>
				<polygon fill="#CCF2FF" points="65.121,76.77 70.635,82.277 72.268,82.277 65.121,75.135 				"/>
			</g>
			<polygon fill="#576877" points="50.891,37.661 17.163,56.087 24.663,56.087 50.729,42.055 76.957,56.087 84.295,56.087 			"/>
			<polygon fill="#576877" points="50.68,12.723 29.267,24.419 34.032,24.419 50.575,15.512 67.225,24.419 71.883,24.419 			"/>
			<circle fill="#FFFFFF" cx="50.729" cy="51.51" r="4.575"/>
			<circle fill="#414042" cx="50.729" cy="51.51" r="3.491"/>
			<circle fill="#F1F2F2" cx="50.727" cy="25.662" r="5.739"/>
			<rect x="50.247" y="22.056" fill="#576877" width="0.815" height="3.972"/>
			<rect x="50.247" y="25.214" fill="#576877" width="3.087" height="0.814"/>
			<rect x="39.919" y="72.941" fill="#FFFFFF" width="21.015" height="15.588"/>
			<rect x="40.733" y="73.757" fill="#99E5FF" width="8.923" height="13.962"/>
			<rect x="50.425" y="72.941" fill="#F1F2F2" width="10.509" height="15.588"/>
			<rect x="51.238" y="73.757" fill="#99E5FF" width="8.879" height="13.962"/>
			<polygon fill="#D6F5FF" points="40.733,74.234 49.656,83.154 49.656,77.477 45.937,73.757 40.733,73.757 			"/>
			<polygon fill="#D6F5FF" points="51.238,74.312 60.117,83.186 60.117,77.508 56.367,73.757 51.238,73.757 			"/>
			<polygon fill="#D6F5FF" points="51.238,77.204 60.117,86.062 60.117,84.24 51.238,75.376 			"/>
			<polygon fill="#D6F5FF" points="40.733,77.818 49.656,86.717 49.656,84.158 40.733,75.248 			"/>
		</g>
		<rect x="24.824" y="88.529" fill="#BC9850" width="51.742" height="3.47"/>
		<rect x="39.919" y="88.529" fill="#FBD589" width="21.015" height="1.478"/>
		<rect x="39.919" y="90.007" fill="#FACB6B" width="21.015" height="1.481"/>
		<rect x="37.897" y="91.488" fill="#FBD589" width="24.396" height="1.479"/>
		<rect x="37.897" y="92.968" fill="#FACB6B" width="24.396" height="1.479"/>
		<g>
			<g>
				<path fill="#1AAF5D" d="M77.924,75.66c0,4.924-3.992,8.9-8.896,8.9c-4.908,0-8.896-3.978-8.896-8.9
					c0-4.922,3.986-8.908,8.896-8.908C73.932,66.752,77.924,70.738,77.924,75.66z"/>
				<path fill="#305E3B" d="M69.027,84.561c-4.908,0-8.896-3.977-8.896-8.899c0-4.922,3.986-8.908,8.896-8.908V84.561z"/>
			</g>
			<polygon fill="#A97C50" points="68.424,91.93 68.766,73.535 69.15,73.535 69.493,91.93 			"/>
			<g>
				
					<rect x="70.43" y="79.226" transform="matrix(-0.7515 -0.6597 0.6597 -0.7515 69.8414 190.0771)" fill="#A97C50" width="0.574" height="5.32"/>
			</g>
			<g>
				
					<rect x="64.531" y="79.024" transform="matrix(-0.661 -0.7504 0.7504 -0.661 52.0958 182.1572)" fill="#A97C50" width="5.329" height="0.572"/>
			</g>
			<g>
				
					<rect x="65.67" y="74.732" transform="matrix(-0.6602 -0.751 0.751 -0.6602 55.9721 175.3562)" fill="#A97C50" width="3.958" height="0.573"/>
			</g>
			<g>
				
					<rect x="70.428" y="74.365" transform="matrix(-0.7507 -0.6607 0.6607 -0.7507 72.9108 181.5715)" fill="#A97C50" width="0.575" height="5.327"/>
			</g>
		</g>
		<g>
			<g>
				<path fill="#1AAF5D" d="M93.076,75.609c0,4.918-3.992,8.897-8.895,8.897c-4.906,0-8.897-3.979-8.897-8.897
					c0-4.922,3.991-8.91,8.897-8.91C89.084,66.699,93.076,70.688,93.076,75.609z"/>
				<path fill="#305E3B" d="M84.184,84.508c-4.906,0-8.898-3.979-8.898-8.898s3.992-8.909,8.898-8.909V84.508z"/>
			</g>
			<polygon fill="#A97C50" points="83.581,91.877 83.919,73.484 84.305,73.484 84.646,91.877 			"/>
			<g>
				
					<rect x="85.584" y="79.173" transform="matrix(-0.7524 -0.6587 0.6587 -0.7524 96.5695 199.9711)" fill="#A97C50" width="0.574" height="5.322"/>
			</g>
			<g>
				
					<rect x="79.687" y="78.97" transform="matrix(-0.661 -0.7504 0.7504 -0.661 77.3064 193.4393)" fill="#A97C50" width="5.328" height="0.572"/>
			</g>
			<g>
				
					<rect x="80.828" y="74.684" transform="matrix(-0.6603 -0.751 0.751 -0.6603 81.1762 186.6604)" fill="#A97C50" width="3.952" height="0.574"/>
			</g>
			<g>
				
					<rect x="85.584" y="74.305" transform="matrix(-0.7514 -0.6598 0.6598 -0.7514 99.6115 191.4668)" fill="#A97C50" width="0.576" height="5.33"/>
			</g>
		</g>
		<rect x="21.536" y="14.418" fill="#F1F2F2" width="0.65" height="76.266"/>
		<path fill="#E6E7E8" d="M25.034,92.145v-0.791c0-1.74-1.421-3.154-3.172-3.154l0,0c-1.749,0-3.172,1.414-3.172,3.154v0.791H25.034
			z"/>
		<rect x="8.283" y="17.508" fill="#E66A42" width="5.965" height="6.794"/>
		<path fill="#D1D3D4" d="M25.034,92.145v-0.791c0-1.101-0.572-2.068-1.432-2.633c-1.296,1.137-2.692,2.303-4.127,3.424H25.034z"/>
		<polygon fill="#AD5032" points="11.793,22.977 14.248,24.302 14.269,22.687 		"/>
		<rect x="11.812" y="16.184" fill="#F17046" width="9.936" height="6.793"/>
	</g>
</g>
</svg>
