<?xml version="1.0" encoding="utf-8"?>
<!-- Generator: Adobe Illustrator 16.0.0, SVG Export Plug-In . SVG Version: 6.00 Build 0)  -->
<!DOCTYPE svg PUBLIC "-//W3C//DTD SVG 1.1//EN" "http://www.w3.org/Graphics/SVG/1.1/DTD/svg11.dtd">
<svg version="1.1" id="Layer_1" xmlns="http://www.w3.org/2000/svg" xmlns:xlink="http://www.w3.org/1999/xlink" x="0px" y="0px"
	 width="25px" height="25px" viewBox="0 0 25 25" enable-background="new 0 0 25 25" xml:space="preserve">
<g>
	<path fill="#565656" d="M4.444,23.051c0.444-0.118,0.915-0.225,1.419-0.312c1.001-0.188,1.523-0.292,1.565-0.312
		c0.344-0.177,0.567-0.417,0.671-0.719c0.083-0.396,0.167-0.735,0.25-1.017c0.115-0.354,0.308-0.558,0.578-0.608
		c0.292-0.054,0.502-0.196,0.634-0.431c-0.275-0.128-0.533-0.498-0.774-1.11c-0.243-0.611-0.425-1.565-0.547-2.861
		c-0.353,0.392-0.616,0.363-0.789-0.087c-0.178-0.461-0.386-0.996-0.626-1.603c-0.243-0.607-0.359-1.152-0.352-1.632
		c0.01-0.469,0.229-0.67,0.657-0.603c0.073-0.463,0.109-0.707,0.109-0.727c0-0.113-0.044-0.306-0.132-0.577
		c-0.088-0.276-0.098-0.684-0.032-1.229C7.142,8.68,7.132,8.194,7.043,7.771S7.03,6.938,7.271,6.542
		C7.562,6.135,7.766,5.803,7.88,5.543c0.218-0.48,0.865-0.924,1.938-1.33c1.063-0.408,2.121-0.617,3.173-0.625
		c0-0.104,0.23-0.114,0.689-0.032c0.521,0.116,1.073,0.339,1.658,0.672c0.198,0.119,0.516,0.409,0.96,0.868
		c0.106-0.092,0.26-0.163,0.461-0.209c0.147-0.033,0.271-0.048,0.375-0.048c0.501,0,0.85,0.423,1.049,1.266
		c0.135,0.604,0.202,1.533,0.202,2.783c0,1.095-0.005,1.688-0.015,1.784c-0.019,0.111-0.077,0.451-0.18,1.017
		c0.18-0.11,0.328-0.094,0.444,0.047c0.119,0.141,0.19,0.254,0.213,0.335c0.021,0.082,0.008,0.448-0.042,1.103
		c-0.047,0.653-0.134,1.225-0.257,1.712c-0.121,0.486-0.505,0.923-1.147,1.305c0,0.907-0.127,1.668-0.375,2.283
		c-0.208,0.535-0.499,0.933-0.877,1.188c0.03,0.053,0.078,0.114,0.141,0.188c0.052,0.094,0.068,0.22,0.048,0.374
		c0.375-0.187,0.672-0.119,0.89,0.204c0.136,0.198,0.319,0.591,0.547,1.174c0.209,0.438,0.59,0.735,1.142,0.89
		c0.313,0.083,0.751,0.159,1.313,0.22c0.158,0.031,0.331,0.09,0.521,0.172c2.552-2.273,4.163-5.584,4.163-9.273
		c0-6.855-5.56-12.413-12.415-12.413c-6.856,0-12.415,5.558-12.415,12.413C0.085,17.39,1.777,20.773,4.444,23.051z"/>
</g>
</svg>
